<mxfile host="app.diagrams.net" agent="Mozilla/5.0 (Windows NT 10.0; Win64; x64) AppleWebKit/537.36 (KHTML, like Gecko) Chrome/129.0.0.0 Safari/537.36" version="24.7.16">
  <diagram name="Page-1" id="K0HP-hQf6lVj0IJY9uLr">
    <mxGraphModel dx="2350" dy="1981" grid="1" gridSize="10" guides="1" tooltips="1" connect="1" arrows="1" fold="1" page="1" pageScale="1" pageWidth="850" pageHeight="1100" math="0" shadow="0">
      <root>
        <mxCell id="0" />
        <mxCell id="1" parent="0" />
        <UserObject label="" plantUmlData="{&#xa;  &quot;data&quot;: &quot;@startuml\nleft to right direction\nskinparam packageStyle rectangle\n\nactor User as \&quot;User\&quot;\n\nrectangle \&quot;Authentication System\&quot; {\n  usecase \&quot;Register\&quot; as UC1\n  usecase \&quot;Login\&quot; as UC2\n}\n\nUser --&gt; UC1 : registers using\nUser --&gt; UC2 : logs in using\n\n@enduml\n&quot;,&#xa;  &quot;format&quot;: &quot;svg&quot;&#xa;}" id="2xdIJRndykrlC1ebGBxE-1">
          <mxCell style="shape=image;noLabel=1;verticalAlign=top;aspect=fixed;imageAspect=0;image=data:image/svg+xml,PD94bWwgdmVyc2lvbj0iMS4wIiBlbmNvZGluZz0idXMtYXNjaWkiIHN0YW5kYWxvbmU9Im5vIj8+PHN2ZyB4bWxucz0iaHR0cDovL3d3dy53My5vcmcvMjAwMC9zdmciIHhtbG5zOnhsaW5rPSJodHRwOi8vd3d3LnczLm9yZy8xOTk5L3hsaW5rIiBjb250ZW50U3R5bGVUeXBlPSJ0ZXh0L2NzcyIgaGVpZ2h0PSIxNTJweCIgcHJlc2VydmVBc3BlY3RSYXRpbz0ibm9uZSIgc3R5bGU9IndpZHRoOjM1NHB4O2hlaWdodDoxNTJweDtiYWNrZ3JvdW5kOiNGRkZGRkY7IiB2ZXJzaW9uPSIxLjEiIHZpZXdCb3g9IjAgMCAzNTQgMTUyIiB3aWR0aD0iMzU0cHgiIHpvb21BbmRQYW49Im1hZ25pZnkiPjxkZWZzLz48Zz48IS0tY2x1c3RlciBBdXRoZW50aWNhdGlvbiBTeXN0ZW0tLT48ZyBpZD0iY2x1c3Rlcl9BdXRoZW50aWNhdGlvbiBTeXN0ZW0iPjxyZWN0IGZpbGw9Im5vbmUiIGhlaWdodD0iMTM5IiByeD0iMi41IiByeT0iMi41IiBzdHlsZT0ic3Ryb2tlOiMxODE4MTg7c3Ryb2tlLXdpZHRoOjEuMDsiIHdpZHRoPSIxNjQiIHg9IjE4NCIgeT0iNyIvPjx0ZXh0IGZpbGw9IiMwMDAwMDAiIGZvbnQtZmFtaWx5PSJzYW5zLXNlcmlmIiBmb250LXNpemU9IjE0IiBmb250LXdlaWdodD0iYm9sZCIgbGVuZ3RoQWRqdXN0PSJzcGFjaW5nIiB0ZXh0TGVuZ3RoPSIxNDgiIHg9IjE5MiIgeT0iMjIuMjM0NCI+QXV0aGVudGljYXRpb24gU3lzdGVtPC90ZXh0PjwvZz48ZyBpZD0iZWxlbV9VQzEiPjxlbGxpcHNlIGN4PSIyNjYuMDgzMyIgY3k9IjU0LjA5NTYiIGZpbGw9IiNGMUYxRjEiIHJ4PSI1MS4wODMzIiByeT0iMTMuNTk1NiIgc3R5bGU9InN0cm9rZTojMTgxODE4O3N0cm9rZS13aWR0aDowLjU7Ii8+PHRleHQgZmlsbD0iIzAwMDAwMCIgZm9udC1mYW1pbHk9InNhbnMtc2VyaWYiIGZvbnQtc2l6ZT0iMTQiIGxlbmd0aEFkanVzdD0ic3BhY2luZyIgdGV4dExlbmd0aD0iNTYiIHg9IjIzOC4wODMzIiB5PSI1Ny44Mzc3Ij5SZWdpc3RlcjwvdGV4dD48L2c+PGcgaWQ9ImVsZW1fVUMyIj48ZWxsaXBzZSBjeD0iMjY2LjIzNCIgY3k9IjExNi4wOTU2IiBmaWxsPSIjRjFGMUYxIiByeD0iMzYuMjM0IiByeT0iMTMuNTk1NiIgc3R5bGU9InN0cm9rZTojMTgxODE4O3N0cm9rZS13aWR0aDowLjU7Ii8+PHRleHQgZmlsbD0iIzAwMDAwMCIgZm9udC1mYW1pbHk9InNhbnMtc2VyaWYiIGZvbnQtc2l6ZT0iMTQiIGxlbmd0aEFkanVzdD0ic3BhY2luZyIgdGV4dExlbmd0aD0iMzUiIHg9IjI0OC43MzQiIHk9IjExOS44Mzc3Ij5Mb2dpbjwvdGV4dD48L2c+PCEtLWVudGl0eSBVc2VyLS0+PGcgaWQ9ImVsZW1fVXNlciI+PGVsbGlwc2UgY3g9IjIwIiBjeT0iNTciIGZpbGw9IiNGMUYxRjEiIHJ4PSI4IiByeT0iOCIgc3R5bGU9InN0cm9rZTojMTgxODE4O3N0cm9rZS13aWR0aDowLjU7Ii8+PHBhdGggZD0iTTIwLDY1IEwyMCw5MiBNNyw3MyBMMzMsNzMgTTIwLDkyIEw3LDEwNyBNMjAsOTIgTDMzLDEwNyAiIGZpbGw9Im5vbmUiIHN0eWxlPSJzdHJva2U6IzE4MTgxODtzdHJva2Utd2lkdGg6MC41OyIvPjx0ZXh0IGZpbGw9IiMwMDAwMDAiIGZvbnQtZmFtaWx5PSJzYW5zLXNlcmlmIiBmb250LXNpemU9IjE0IiBsZW5ndGhBZGp1c3Q9InNwYWNpbmciIHRleHRMZW5ndGg9IjI4IiB4PSI2IiB5PSIxMjEuNzM0NCI+VXNlcjwvdGV4dD48L2c+PCEtLWxpbmsgVXNlciB0byBVQzEtLT48ZyBpZD0ibGlua19Vc2VyX1VDMSI+PHBhdGggZD0iTTM0LjEyLDg0LjI4IEM2OC41Nyw3OS43NiAxNTYuOTAxLDY4LjE4MDUgMjEzLjc2MSw2MC43MjA1ICIgZmlsbD0ibm9uZSIgaWQ9IlVzZXItdG8tVUMxIiBzdHlsZT0ic3Ryb2tlOiMxODE4MTg7c3Ryb2tlLXdpZHRoOjEuMDsiLz48cG9seWdvbiBmaWxsPSIjMTgxODE4IiBwb2ludHM9IjIxOS43MSw1OS45NCwyMTAuMjY2MSw1Ny4xNDQ4LDIxNC43NTI1LDYwLjU5MDQsMjExLjMwNjgsNjUuMDc2OCwyMTkuNzEsNTkuOTQiIHN0eWxlPSJzdHJva2U6IzE4MTgxODtzdHJva2Utd2lkdGg6MS4wOyIvPjx0ZXh0IGZpbGw9IiMwMDAwMDAiIGZvbnQtZmFtaWx5PSJzYW5zLXNlcmlmIiBmb250LXNpemU9IjEzIiBsZW5ndGhBZGp1c3Q9InNwYWNpbmciIHRleHRMZW5ndGg9IjEwMiIgeD0iNjUiIHk9IjY2LjI4OTEiPnJlZ2lzdGVycyB1c2luZzwvdGV4dD48L2c+PCEtLWxpbmsgVXNlciB0byBVQzItLT48ZyBpZD0ibGlua19Vc2VyX1VDMiI+PHBhdGggZD0iTTM0LjMxLDk3LjUzIEM0Mi4zNCwxMDMuNyA1My4wOSwxMTAuNyA2NCwxMTQgQzEyMS4yOSwxMzEuMzIgMTg2LjA3ODYsMTI3LjA5MjEgMjI2LjUyODYsMTIxLjkxMjEgIiBmaWxsPSJub25lIiBpZD0iVXNlci10by1VQzIiIHN0eWxlPSJzdHJva2U6IzE4MTgxODtzdHJva2Utd2lkdGg6MS4wOyIvPjxwb2x5Z29uIGZpbGw9IiMxODE4MTgiIHBvaW50cz0iMjMyLjQ4LDEyMS4xNSwyMjMuMDQ0OCwxMTguMzI1NiwyMjcuNTIwNSwxMjEuNzg1MSwyMjQuMDYxLDEyNi4yNjA4LDIzMi40OCwxMjEuMTUiIHN0eWxlPSJzdHJva2U6IzE4MTgxODtzdHJva2Utd2lkdGg6MS4wOyIvPjx0ZXh0IGZpbGw9IiMwMDAwMDAiIGZvbnQtZmFtaWx5PSJzYW5zLXNlcmlmIiBmb250LXNpemU9IjEzIiBsZW5ndGhBZGp1c3Q9InNwYWNpbmciIHRleHRMZW5ndGg9Ijg4IiB4PSI3MiIgeT0iMTEyLjI4OTEiPmxvZ3MgaW4gdXNpbmc8L3RleHQ+PC9nPjwhLS1TUkM9W0pPdW4zaThtMzRMdGR5QkF0ZTZFMzRZOGJPY2cxeDIySVFzc0lITXhHdU11RW1iNVlDdG9VX19SNHB5Q0JNNk1DMVpVOVJDdElINXFiQlhHZlhhTnlZQzV4Y29SNjJrYzYyTzY4NnlmT3ctU2FISFQ3SHAwSnExdE5jdFdRRUFmRGNBdGdWN2l5MGM4Z3g4ZEJTd0RXdkhyVGhNWmxucC1zSks1WUxfR21XbFdTd2pmSmJONE9fYmJwc2c5STBwX2sycnVJYTVIdVd4Vl0tLT48L2c+PC9zdmc+;" vertex="1" parent="1">
            <mxGeometry x="-90" y="-160" width="494" height="212.11" as="geometry" />
          </mxCell>
        </UserObject>
        <UserObject label="" plantUmlData="{&quot;data&quot;:&quot;@startuml\nskinparam monochrome false\n\ntitle User Registration and Login Flow\n\nstart\n\n:User accesses\nauthentication page;\n\npartition Registration {\n    :User selects \&quot;Register\&quot;;\n    :User fills out registration form\n    (username, password, email);\n    :User submits form;\n    -&gt;[True] System validates\n    provided information;\n    if (Validation Successful?) then (yes)\n        :System creates user account;\n        :System sends confirmation;\n    else (no)\n        :System displays error message;\n    endif\n}\n\npartition Login {\n    :User selects \&quot;Login\&quot;;\n    :User enters username\n    and password;\n    :User submits credentials;\n    -&gt;[True] System checks credentials;\n    if (Credentials Valid?) then (yes)\n        :System grants access;\n    else (no)\n        :System denies access;\n        :System displays error message;\n    endif\n}\n\n:System display home page;\nstop\n\n@enduml\n&quot;,&quot;format&quot;:&quot;svg&quot;}" id="2xdIJRndykrlC1ebGBxE-3">
          <mxCell style="shape=image;noLabel=1;verticalAlign=top;aspect=fixed;imageAspect=0;image=data:image/svg+xml,PD94bWwgdmVyc2lvbj0iMS4wIiBlbmNvZGluZz0idXMtYXNjaWkiIHN0YW5kYWxvbmU9Im5vIj8+PHN2ZyB4bWxucz0iaHR0cDovL3d3dy53My5vcmcvMjAwMC9zdmciIHhtbG5zOnhsaW5rPSJodHRwOi8vd3d3LnczLm9yZy8xOTk5L3hsaW5rIiBjb250ZW50U3R5bGVUeXBlPSJ0ZXh0L2NzcyIgaGVpZ2h0PSIxMDQzcHgiIHByZXNlcnZlQXNwZWN0UmF0aW89Im5vbmUiIHN0eWxlPSJ3aWR0aDo0ODhweDtoZWlnaHQ6MTA0M3B4O2JhY2tncm91bmQ6I0ZGRkZGRjsiIHZlcnNpb249IjEuMSIgdmlld0JveD0iMCAwIDQ4OCAxMDQzIiB3aWR0aD0iNDg4cHgiIHpvb21BbmRQYW49Im1hZ25pZnkiPjxkZWZzLz48Zz48dGV4dCBmaWxsPSIjMDAwMDAwIiBmb250LWZhbWlseT0ic2Fucy1zZXJpZiIgZm9udC1zaXplPSIxNCIgZm9udC13ZWlnaHQ9ImJvbGQiIGxlbmd0aEFkanVzdD0ic3BhY2luZyIgdGV4dExlbmd0aD0iMjI1IiB4PSIxMzAiIHk9IjMzLjIzNDQiPlVzZXIgUmVnaXN0cmF0aW9uIGFuZCBMb2dpbiBGbG93PC90ZXh0PjxlbGxpcHNlIGN4PSIyMzYiIGN5PSI1NS45ODQ0IiBmaWxsPSIjMjIyMjIyIiByeD0iMTAiIHJ5PSIxMCIgc3R5bGU9InN0cm9rZTojMjIyMjIyO3N0cm9rZS13aWR0aDoxLjA7Ii8+PHJlY3QgZmlsbD0iI0YxRjFGMSIgaGVpZ2h0PSI0NS42ODc1IiByeD0iMTIuNSIgcnk9IjEyLjUiIHN0eWxlPSJzdHJva2U6IzE4MTgxODtzdHJva2Utd2lkdGg6MC41OyIgd2lkdGg9IjE0NiIgeD0iMTYzIiB5PSI4NS45ODQ0Ii8+PHRleHQgZmlsbD0iIzAwMDAwMCIgZm9udC1mYW1pbHk9InNhbnMtc2VyaWYiIGZvbnQtc2l6ZT0iMTIiIGxlbmd0aEFkanVzdD0ic3BhY2luZyIgdGV4dExlbmd0aD0iODgiIHg9IjE3MyIgeT0iMTA3LjMyODEiPlVzZXIgYWNjZXNzZXM8L3RleHQ+PHRleHQgZmlsbD0iIzAwMDAwMCIgZm9udC1mYW1pbHk9InNhbnMtc2VyaWYiIGZvbnQtc2l6ZT0iMTIiIGxlbmd0aEFkanVzdD0ic3BhY2luZyIgdGV4dExlbmd0aD0iMTI2IiB4PSIxNzMiIHk9IjEyMC4xNzE5Ij5hdXRoZW50aWNhdGlvbiBwYWdlPC90ZXh0PjxyZWN0IGZpbGw9Im5vbmUiIGhlaWdodD0iMzk4Ljk2ODgiIHN0eWxlPSJzdHJva2U6IzAwMDAwMDtzdHJva2Utd2lkdGg6MS41OyIgd2lkdGg9IjQ2NiIgeD0iMTEiIHk9IjE0MS42NzE5Ii8+PHBhdGggZD0iTTEwNSwxNDEuNjcxOSBMMTA1LDE0OS42NTYzIEw5NSwxNTkuNjU2MyBMMTEsMTU5LjY1NjMgIiBmaWxsPSJub25lIiBzdHlsZT0ic3Ryb2tlOiMwMDAwMDA7c3Ryb2tlLXdpZHRoOjEuNTsiLz48dGV4dCBmaWxsPSIjMDAwMDAwIiBmb250LWZhbWlseT0ic2Fucy1zZXJpZiIgZm9udC1zaXplPSIxNCIgbGVuZ3RoQWRqdXN0PSJzcGFjaW5nIiB0ZXh0TGVuZ3RoPSI4NCIgeD0iMTQiIHk9IjE1NS45MDYzIj5SZWdpc3RyYXRpb248L3RleHQ+PHJlY3QgZmlsbD0iI0YxRjFGMSIgaGVpZ2h0PSIzMi44NDM4IiByeD0iMTIuNSIgcnk9IjEyLjUiIHN0eWxlPSJzdHJva2U6IzE4MTgxODtzdHJva2Utd2lkdGg6MC41OyIgd2lkdGg9IjE3MiIgeD0iMTUwIiB5PSIxNzYuNjU2MyIvPjx0ZXh0IGZpbGw9IiMwMDAwMDAiIGZvbnQtZmFtaWx5PSJzYW5zLXNlcmlmIiBmb250LXNpemU9IjEyIiBsZW5ndGhBZGp1c3Q9InNwYWNpbmciIHRleHRMZW5ndGg9IjE1MiIgeD0iMTYwIiB5PSIxOTgiPlVzZXIgc2VsZWN0cyAiUmVnaXN0ZXIiPC90ZXh0PjxyZWN0IGZpbGw9IiNGMUYxRjEiIGhlaWdodD0iNDUuNjg3NSIgcng9IjEyLjUiIHJ5PSIxMi41IiBzdHlsZT0ic3Ryb2tlOiMxODE4MTg7c3Ryb2tlLXdpZHRoOjAuNTsiIHdpZHRoPSIyMjkiIHg9IjEyMS41IiB5PSIyMjkuNSIvPjx0ZXh0IGZpbGw9IiMwMDAwMDAiIGZvbnQtZmFtaWx5PSJzYW5zLXNlcmlmIiBmb250LXNpemU9IjEyIiBsZW5ndGhBZGp1c3Q9InNwYWNpbmciIHRleHRMZW5ndGg9IjIwOSIgeD0iMTMxLjUiIHk9IjI1MC44NDM4Ij5Vc2VyIGZpbGxzIG91dCByZWdpc3RyYXRpb24gZm9ybTwvdGV4dD48dGV4dCBmaWxsPSIjMDAwMDAwIiBmb250LWZhbWlseT0ic2Fucy1zZXJpZiIgZm9udC1zaXplPSIxMiIgbGVuZ3RoQWRqdXN0PSJzcGFjaW5nIiB0ZXh0TGVuZ3RoPSIxNzgiIHg9IjEzMS41IiB5PSIyNjMuNjg3NSI+KHVzZXJuYW1lLCBwYXNzd29yZCwgZW1haWwpPC90ZXh0PjxyZWN0IGZpbGw9IiNGMUYxRjEiIGhlaWdodD0iMzIuODQzOCIgcng9IjEyLjUiIHJ5PSIxMi41IiBzdHlsZT0ic3Ryb2tlOiMxODE4MTg7c3Ryb2tlLXdpZHRoOjAuNTsiIHdpZHRoPSIxMzIiIHg9IjE3MCIgeT0iMjk1LjE4NzUiLz48dGV4dCBmaWxsPSIjMDAwMDAwIiBmb250LWZhbWlseT0ic2Fucy1zZXJpZiIgZm9udC1zaXplPSIxMiIgbGVuZ3RoQWRqdXN0PSJzcGFjaW5nIiB0ZXh0TGVuZ3RoPSIxMTIiIHg9IjE4MCIgeT0iMzE2LjUzMTMiPlVzZXIgc3VibWl0cyBmb3JtPC90ZXh0Pjxwb2x5Z29uIGZpbGw9IiNGMUYxRjEiIHBvaW50cz0iMTcwLDM3OC45NTMxLDMwMiwzNzguOTUzMSwzMTQsMzkwLjk1MzEsMzAyLDQwMi45NTMxLDE3MCw0MDIuOTUzMSwxNTgsMzkwLjk1MzEsMTcwLDM3OC45NTMxIiBzdHlsZT0ic3Ryb2tlOiMxODE4MTg7c3Ryb2tlLXdpZHRoOjAuNTsiLz48dGV4dCBmaWxsPSIjMDAwMDAwIiBmb250LWZhbWlseT0ic2Fucy1zZXJpZiIgZm9udC1zaXplPSIxMSIgbGVuZ3RoQWRqdXN0PSJzcGFjaW5nIiB0ZXh0TGVuZ3RoPSIxMzIiIHg9IjE3MCIgeT0iMzk1LjQ2NDgiPlZhbGlkYXRpb24gU3VjY2Vzc2Z1bD88L3RleHQ+PHRleHQgZmlsbD0iIzAwMDAwMCIgZm9udC1mYW1pbHk9InNhbnMtc2VyaWYiIGZvbnQtc2l6ZT0iMTEiIGxlbmd0aEFkanVzdD0ic3BhY2luZyIgdGV4dExlbmd0aD0iMTgiIHg9IjE0MCIgeT0iMzg5LjU3ODEiPnllczwvdGV4dD48dGV4dCBmaWxsPSIjMDAwMDAwIiBmb250LWZhbWlseT0ic2Fucy1zZXJpZiIgZm9udC1zaXplPSIxMSIgbGVuZ3RoQWRqdXN0PSJzcGFjaW5nIiB0ZXh0TGVuZ3RoPSIxMiIgeD0iMzE0IiB5PSIzODkuNTc4MSI+bm88L3RleHQ+PHJlY3QgZmlsbD0iI0YxRjFGMSIgaGVpZ2h0PSIzMi44NDM4IiByeD0iMTIuNSIgcnk9IjEyLjUiIHN0eWxlPSJzdHJva2U6IzE4MTgxODtzdHJva2Utd2lkdGg6MC41OyIgd2lkdGg9IjE5OSIgeD0iMjMiIHk9IjQxMi45NTMxIi8+PHRleHQgZmlsbD0iIzAwMDAwMCIgZm9udC1mYW1pbHk9InNhbnMtc2VyaWYiIGZvbnQtc2l6ZT0iMTIiIGxlbmd0aEFkanVzdD0ic3BhY2luZyIgdGV4dExlbmd0aD0iMTc5IiB4PSIzMyIgeT0iNDM0LjI5NjkiPlN5c3RlbSBjcmVhdGVzIHVzZXIgYWNjb3VudDwvdGV4dD48cmVjdCBmaWxsPSIjRjFGMUYxIiBoZWlnaHQ9IjMyLjg0MzgiIHJ4PSIxMi41IiByeT0iMTIuNSIgc3R5bGU9InN0cm9rZTojMTgxODE4O3N0cm9rZS13aWR0aDowLjU7IiB3aWR0aD0iMTg1IiB4PSIzMCIgeT0iNDY1Ljc5NjkiLz48dGV4dCBmaWxsPSIjMDAwMDAwIiBmb250LWZhbWlseT0ic2Fucy1zZXJpZiIgZm9udC1zaXplPSIxMiIgbGVuZ3RoQWRqdXN0PSJzcGFjaW5nIiB0ZXh0TGVuZ3RoPSIxNjUiIHg9IjQwIiB5PSI0ODcuMTQwNiI+U3lzdGVtIHNlbmRzIGNvbmZpcm1hdGlvbjwvdGV4dD48cmVjdCBmaWxsPSIjRjFGMUYxIiBoZWlnaHQ9IjMyLjg0MzgiIHJ4PSIxMi41IiByeT0iMTIuNSIgc3R5bGU9InN0cm9rZTojMTgxODE4O3N0cm9rZS13aWR0aDowLjU7IiB3aWR0aD0iMjE1IiB4PSIyNDIiIHk9IjQxMi45NTMxIi8+PHRleHQgZmlsbD0iIzAwMDAwMCIgZm9udC1mYW1pbHk9InNhbnMtc2VyaWYiIGZvbnQtc2l6ZT0iMTIiIGxlbmd0aEFkanVzdD0ic3BhY2luZyIgdGV4dExlbmd0aD0iMTk1IiB4PSIyNTIiIHk9IjQzNC4yOTY5Ij5TeXN0ZW0gZGlzcGxheXMgZXJyb3IgbWVzc2FnZTwvdGV4dD48cG9seWdvbiBmaWxsPSIjRjFGMUYxIiBwb2ludHM9IjIzNiw1MDQuNjQwNiwyNDgsNTE2LjY0MDYsMjM2LDUyOC42NDA2LDIyNCw1MTYuNjQwNiwyMzYsNTA0LjY0MDYiIHN0eWxlPSJzdHJva2U6IzE4MTgxODtzdHJva2Utd2lkdGg6MC41OyIvPjxyZWN0IGZpbGw9Im5vbmUiIGhlaWdodD0iMzg3LjE5NTMiIHN0eWxlPSJzdHJva2U6IzAwMDAwMDtzdHJva2Utd2lkdGg6MS41OyIgd2lkdGg9IjQyOCIgeD0iMzcuNSIgeT0iNTUwLjY0MDYiLz48cGF0aCBkPSJNODIuNSw1NTAuNjQwNiBMODIuNSw1NTguNjI1IEw3Mi41LDU2OC42MjUgTDM3LjUsNTY4LjYyNSAiIGZpbGw9Im5vbmUiIHN0eWxlPSJzdHJva2U6IzAwMDAwMDtzdHJva2Utd2lkdGg6MS41OyIvPjx0ZXh0IGZpbGw9IiMwMDAwMDAiIGZvbnQtZmFtaWx5PSJzYW5zLXNlcmlmIiBmb250LXNpemU9IjE0IiBsZW5ndGhBZGp1c3Q9InNwYWNpbmciIHRleHRMZW5ndGg9IjM1IiB4PSI0MC41IiB5PSI1NjQuODc1Ij5Mb2dpbjwvdGV4dD48cmVjdCBmaWxsPSIjRjFGMUYxIiBoZWlnaHQ9IjMyLjg0MzgiIHJ4PSIxMi41IiByeT0iMTIuNSIgc3R5bGU9InN0cm9rZTojMTgxODE4O3N0cm9rZS13aWR0aDowLjU7IiB3aWR0aD0iMTUxIiB4PSIxNjAuNSIgeT0iNTg1LjYyNSIvPjx0ZXh0IGZpbGw9IiMwMDAwMDAiIGZvbnQtZmFtaWx5PSJzYW5zLXNlcmlmIiBmb250LXNpemU9IjEyIiBsZW5ndGhBZGp1c3Q9InNwYWNpbmciIHRleHRMZW5ndGg9IjEzMSIgeD0iMTcwLjUiIHk9IjYwNi45Njg4Ij5Vc2VyIHNlbGVjdHMgIkxvZ2luIjwvdGV4dD48cmVjdCBmaWxsPSIjRjFGMUYxIiBoZWlnaHQ9IjQ1LjY4NzUiIHJ4PSIxMi41IiByeT0iMTIuNSIgc3R5bGU9InN0cm9rZTojMTgxODE4O3N0cm9rZS13aWR0aDowLjU7IiB3aWR0aD0iMTU2IiB4PSIxNTgiIHk9IjYzOC40Njg4Ii8+PHRleHQgZmlsbD0iIzAwMDAwMCIgZm9udC1mYW1pbHk9InNhbnMtc2VyaWYiIGZvbnQtc2l6ZT0iMTIiIGxlbmd0aEFkanVzdD0ic3BhY2luZyIgdGV4dExlbmd0aD0iMTM2IiB4PSIxNjgiIHk9IjY1OS44MTI1Ij5Vc2VyIGVudGVycyB1c2VybmFtZTwvdGV4dD48dGV4dCBmaWxsPSIjMDAwMDAwIiBmb250LWZhbWlseT0ic2Fucy1zZXJpZiIgZm9udC1zaXplPSIxMiIgbGVuZ3RoQWRqdXN0PSJzcGFjaW5nIiB0ZXh0TGVuZ3RoPSI4MiIgeD0iMTY4IiB5PSI2NzIuNjU2MyI+YW5kIHBhc3N3b3JkPC90ZXh0PjxyZWN0IGZpbGw9IiNGMUYxRjEiIGhlaWdodD0iMzIuODQzOCIgcng9IjEyLjUiIHJ5PSIxMi41IiBzdHlsZT0ic3Ryb2tlOiMxODE4MTg7c3Ryb2tlLXdpZHRoOjAuNTsiIHdpZHRoPSIxNzkiIHg9IjE0Ni41IiB5PSI3MDQuMTU2MyIvPjx0ZXh0IGZpbGw9IiMwMDAwMDAiIGZvbnQtZmFtaWx5PSJzYW5zLXNlcmlmIiBmb250LXNpemU9IjEyIiBsZW5ndGhBZGp1c3Q9InNwYWNpbmciIHRleHRMZW5ndGg9IjE1OSIgeD0iMTU2LjUiIHk9IjcyNS41Ij5Vc2VyIHN1Ym1pdHMgY3JlZGVudGlhbHM8L3RleHQ+PHBvbHlnb24gZmlsbD0iI0YxRjFGMSIgcG9pbnRzPSIxODIsNzc2LjE0ODQsMjkwLDc3Ni4xNDg0LDMwMiw3ODguMTQ4NCwyOTAsODAwLjE0ODQsMTgyLDgwMC4xNDg0LDE3MCw3ODguMTQ4NCwxODIsNzc2LjE0ODQiIHN0eWxlPSJzdHJva2U6IzE4MTgxODtzdHJva2Utd2lkdGg6MC41OyIvPjx0ZXh0IGZpbGw9IiMwMDAwMDAiIGZvbnQtZmFtaWx5PSJzYW5zLXNlcmlmIiBmb250LXNpemU9IjExIiBsZW5ndGhBZGp1c3Q9InNwYWNpbmciIHRleHRMZW5ndGg9IjEwOCIgeD0iMTgyIiB5PSI3OTIuNjYwMiI+Q3JlZGVudGlhbHMgVmFsaWQ/PC90ZXh0Pjx0ZXh0IGZpbGw9IiMwMDAwMDAiIGZvbnQtZmFtaWx5PSJzYW5zLXNlcmlmIiBmb250LXNpemU9IjExIiBsZW5ndGhBZGp1c3Q9InNwYWNpbmciIHRleHRMZW5ndGg9IjE4IiB4PSIxNTIiIHk9Ijc4Ni43NzM0Ij55ZXM8L3RleHQ+PHRleHQgZmlsbD0iIzAwMDAwMCIgZm9udC1mYW1pbHk9InNhbnMtc2VyaWYiIGZvbnQtc2l6ZT0iMTEiIGxlbmd0aEFkanVzdD0ic3BhY2luZyIgdGV4dExlbmd0aD0iMTIiIHg9IjMwMiIgeT0iNzg2Ljc3MzQiPm5vPC90ZXh0PjxyZWN0IGZpbGw9IiNGMUYxRjEiIGhlaWdodD0iMzIuODQzOCIgcng9IjEyLjUiIHJ5PSIxMi41IiBzdHlsZT0ic3Ryb2tlOiMxODE4MTg7c3Ryb2tlLXdpZHRoOjAuNTsiIHdpZHRoPSIxNTMiIHg9IjU3LjUiIHk9IjgxMC4xNDg0Ii8+PHRleHQgZmlsbD0iIzAwMDAwMCIgZm9udC1mYW1pbHk9InNhbnMtc2VyaWYiIGZvbnQtc2l6ZT0iMTIiIGxlbmd0aEFkanVzdD0ic3BhY2luZyIgdGV4dExlbmd0aD0iMTMzIiB4PSI2Ny41IiB5PSI4MzEuNDkyMiI+U3lzdGVtIGdyYW50cyBhY2Nlc3M8L3RleHQ+PHJlY3QgZmlsbD0iI0YxRjFGMSIgaGVpZ2h0PSIzMi44NDM4IiByeD0iMTIuNSIgcnk9IjEyLjUiIHN0eWxlPSJzdHJva2U6IzE4MTgxODtzdHJva2Utd2lkdGg6MC41OyIgd2lkdGg9IjE1MyIgeD0iMjYxLjUiIHk9IjgxMC4xNDg0Ii8+PHRleHQgZmlsbD0iIzAwMDAwMCIgZm9udC1mYW1pbHk9InNhbnMtc2VyaWYiIGZvbnQtc2l6ZT0iMTIiIGxlbmd0aEFkanVzdD0ic3BhY2luZyIgdGV4dExlbmd0aD0iMTMzIiB4PSIyNzEuNSIgeT0iODMxLjQ5MjIiPlN5c3RlbSBkZW5pZXMgYWNjZXNzPC90ZXh0PjxyZWN0IGZpbGw9IiNGMUYxRjEiIGhlaWdodD0iMzIuODQzOCIgcng9IjEyLjUiIHJ5PSIxMi41IiBzdHlsZT0ic3Ryb2tlOiMxODE4MTg7c3Ryb2tlLXdpZHRoOjAuNTsiIHdpZHRoPSIyMTUiIHg9IjIzMC41IiB5PSI4NjIuOTkyMiIvPjx0ZXh0IGZpbGw9IiMwMDAwMDAiIGZvbnQtZmFtaWx5PSJzYW5zLXNlcmlmIiBmb250LXNpemU9IjEyIiBsZW5ndGhBZGp1c3Q9InNwYWNpbmciIHRleHRMZW5ndGg9IjE5NSIgeD0iMjQwLjUiIHk9Ijg4NC4zMzU5Ij5TeXN0ZW0gZGlzcGxheXMgZXJyb3IgbWVzc2FnZTwvdGV4dD48cG9seWdvbiBmaWxsPSIjRjFGMUYxIiBwb2ludHM9IjIzNiw5MDEuODM1OSwyNDgsOTEzLjgzNTksMjM2LDkyNS44MzU5LDIyNCw5MTMuODM1OSwyMzYsOTAxLjgzNTkiIHN0eWxlPSJzdHJva2U6IzE4MTgxODtzdHJva2Utd2lkdGg6MC41OyIvPjxyZWN0IGZpbGw9IiNGMUYxRjEiIGhlaWdodD0iMzIuODQzOCIgcng9IjEyLjUiIHJ5PSIxMi41IiBzdHlsZT0ic3Ryb2tlOiMxODE4MTg7c3Ryb2tlLXdpZHRoOjAuNTsiIHdpZHRoPSIxODAiIHg9IjE0NiIgeT0iOTU3LjgzNTkiLz48dGV4dCBmaWxsPSIjMDAwMDAwIiBmb250LWZhbWlseT0ic2Fucy1zZXJpZiIgZm9udC1zaXplPSIxMiIgbGVuZ3RoQWRqdXN0PSJzcGFjaW5nIiB0ZXh0TGVuZ3RoPSIxNjAiIHg9IjE1NiIgeT0iOTc5LjE3OTciPlN5c3RlbSBkaXNwbGF5IGhvbWUgcGFnZTwvdGV4dD48ZWxsaXBzZSBjeD0iMjM2IiBjeT0iMTAyMS42Nzk3IiBmaWxsPSJub25lIiByeD0iMTEiIHJ5PSIxMSIgc3R5bGU9InN0cm9rZTojMjIyMjIyO3N0cm9rZS13aWR0aDoxLjA7Ii8+PGVsbGlwc2UgY3g9IjIzNiIgY3k9IjEwMjEuNjc5NyIgZmlsbD0iIzIyMjIyMiIgcng9IjYiIHJ5PSI2IiBzdHlsZT0ic3Ryb2tlOiMyMjIyMjI7c3Ryb2tlLXdpZHRoOjEuMDsiLz48bGluZSBzdHlsZT0ic3Ryb2tlOiMxODE4MTg7c3Ryb2tlLXdpZHRoOjEuMDsiIHgxPSIyMzYiIHgyPSIyMzYiIHkxPSI2NS45ODQ0IiB5Mj0iODUuOTg0NCIvPjxwb2x5Z29uIGZpbGw9IiMxODE4MTgiIHBvaW50cz0iMjMyLDc1Ljk4NDQsMjM2LDg1Ljk4NDQsMjQwLDc1Ljk4NDQsMjM2LDc5Ljk4NDQiIHN0eWxlPSJzdHJva2U6IzE4MTgxODtzdHJva2Utd2lkdGg6MS4wOyIvPjxsaW5lIHN0eWxlPSJzdHJva2U6IzE4MTgxODtzdHJva2Utd2lkdGg6MS4wOyIgeDE9IjIzNiIgeDI9IjIzNiIgeTE9IjIwOS41IiB5Mj0iMjI5LjUiLz48cG9seWdvbiBmaWxsPSIjMTgxODE4IiBwb2ludHM9IjIzMiwyMTkuNSwyMzYsMjI5LjUsMjQwLDIxOS41LDIzNiwyMjMuNSIgc3R5bGU9InN0cm9rZTojMTgxODE4O3N0cm9rZS13aWR0aDoxLjA7Ii8+PGxpbmUgc3R5bGU9InN0cm9rZTojMTgxODE4O3N0cm9rZS13aWR0aDoxLjA7IiB4MT0iMjM2IiB4Mj0iMjM2IiB5MT0iMjc1LjE4NzUiIHkyPSIyOTUuMTg3NSIvPjxwb2x5Z29uIGZpbGw9IiMxODE4MTgiIHBvaW50cz0iMjMyLDI4NS4xODc1LDIzNiwyOTUuMTg3NSwyNDAsMjg1LjE4NzUsMjM2LDI4OS4xODc1IiBzdHlsZT0ic3Ryb2tlOiMxODE4MTg7c3Ryb2tlLXdpZHRoOjEuMDsiLz48bGluZSBzdHlsZT0ic3Ryb2tlOiMxODE4MTg7c3Ryb2tlLXdpZHRoOjEuMDsiIHgxPSIxMjIuNSIgeDI9IjEyMi41IiB5MT0iNDQ1Ljc5NjkiIHkyPSI0NjUuNzk2OSIvPjxwb2x5Z29uIGZpbGw9IiMxODE4MTgiIHBvaW50cz0iMTE4LjUsNDU1Ljc5NjksMTIyLjUsNDY1Ljc5NjksMTI2LjUsNDU1Ljc5NjksMTIyLjUsNDU5Ljc5NjkiIHN0eWxlPSJzdHJva2U6IzE4MTgxODtzdHJva2Utd2lkdGg6MS4wOyIvPjxsaW5lIHN0eWxlPSJzdHJva2U6IzE4MTgxODtzdHJva2Utd2lkdGg6MS4wOyIgeDE9IjE1OCIgeDI9IjEyMi41IiB5MT0iMzkwLjk1MzEiIHkyPSIzOTAuOTUzMSIvPjxsaW5lIHN0eWxlPSJzdHJva2U6IzE4MTgxODtzdHJva2Utd2lkdGg6MS4wOyIgeDE9IjEyMi41IiB4Mj0iMTIyLjUiIHkxPSIzOTAuOTUzMSIgeTI9IjQxMi45NTMxIi8+PHBvbHlnb24gZmlsbD0iIzE4MTgxOCIgcG9pbnRzPSIxMTguNSw0MDIuOTUzMSwxMjIuNSw0MTIuOTUzMSwxMjYuNSw0MDIuOTUzMSwxMjIuNSw0MDYuOTUzMSIgc3R5bGU9InN0cm9rZTojMTgxODE4O3N0cm9rZS13aWR0aDoxLjA7Ii8+PGxpbmUgc3R5bGU9InN0cm9rZTojMTgxODE4O3N0cm9rZS13aWR0aDoxLjA7IiB4MT0iMzE0IiB4Mj0iMzQ5LjUiIHkxPSIzOTAuOTUzMSIgeTI9IjM5MC45NTMxIi8+PGxpbmUgc3R5bGU9InN0cm9rZTojMTgxODE4O3N0cm9rZS13aWR0aDoxLjA7IiB4MT0iMzQ5LjUiIHgyPSIzNDkuNSIgeTE9IjM5MC45NTMxIiB5Mj0iNDEyLjk1MzEiLz48cG9seWdvbiBmaWxsPSIjMTgxODE4IiBwb2ludHM9IjM0NS41LDQwMi45NTMxLDM0OS41LDQxMi45NTMxLDM1My41LDQwMi45NTMxLDM0OS41LDQwNi45NTMxIiBzdHlsZT0ic3Ryb2tlOiMxODE4MTg7c3Ryb2tlLXdpZHRoOjEuMDsiLz48bGluZSBzdHlsZT0ic3Ryb2tlOiMxODE4MTg7c3Ryb2tlLXdpZHRoOjEuMDsiIHgxPSIxMjIuNSIgeDI9IjEyMi41IiB5MT0iNDk4LjY0MDYiIHkyPSI1MTYuNjQwNiIvPjxsaW5lIHN0eWxlPSJzdHJva2U6IzE4MTgxODtzdHJva2Utd2lkdGg6MS4wOyIgeDE9IjEyMi41IiB4Mj0iMjI0IiB5MT0iNTE2LjY0MDYiIHkyPSI1MTYuNjQwNiIvPjxwb2x5Z29uIGZpbGw9IiMxODE4MTgiIHBvaW50cz0iMjE0LDUxMi42NDA2LDIyNCw1MTYuNjQwNiwyMTQsNTIwLjY0MDYsMjE4LDUxNi42NDA2IiBzdHlsZT0ic3Ryb2tlOiMxODE4MTg7c3Ryb2tlLXdpZHRoOjEuMDsiLz48bGluZSBzdHlsZT0ic3Ryb2tlOiMxODE4MTg7c3Ryb2tlLXdpZHRoOjEuMDsiIHgxPSIzNDkuNSIgeDI9IjM0OS41IiB5MT0iNDQ1Ljc5NjkiIHkyPSI1MTYuNjQwNiIvPjxsaW5lIHN0eWxlPSJzdHJva2U6IzE4MTgxODtzdHJva2Utd2lkdGg6MS4wOyIgeDE9IjM0OS41IiB4Mj0iMjQ4IiB5MT0iNTE2LjY0MDYiIHkyPSI1MTYuNjQwNiIvPjxwb2x5Z29uIGZpbGw9IiMxODE4MTgiIHBvaW50cz0iMjU4LDUxMi42NDA2LDI0OCw1MTYuNjQwNiwyNTgsNTIwLjY0MDYsMjU0LDUxNi42NDA2IiBzdHlsZT0ic3Ryb2tlOiMxODE4MTg7c3Ryb2tlLXdpZHRoOjEuMDsiLz48bGluZSBzdHlsZT0ic3Ryb2tlOiMxODE4MTg7c3Ryb2tlLXdpZHRoOjEuMDsiIHgxPSIyMzYiIHgyPSIyMzYiIHkxPSIzMjguMDMxMyIgeTI9IjM3OC45NTMxIi8+PHBvbHlnb24gZmlsbD0iIzE4MTgxOCIgcG9pbnRzPSIyMzIsMzY4Ljk1MzEsMjM2LDM3OC45NTMxLDI0MCwzNjguOTUzMSwyMzYsMzcyLjk1MzEiIHN0eWxlPSJzdHJva2U6IzE4MTgxODtzdHJva2Utd2lkdGg6MS4wOyIvPjx0ZXh0IGZpbGw9IiMwMDAwMDAiIGZvbnQtZmFtaWx5PSJzYW5zLXNlcmlmIiBmb250LXNpemU9IjExIiBsZW5ndGhBZGp1c3Q9InNwYWNpbmciIHRleHRMZW5ndGg9IjEzOCIgeD0iMjQwIiB5PSIzNDguMzA0NyI+W1RydWVdIFN5c3RlbSB2YWxpZGF0ZXM8L3RleHQ+PHRleHQgZmlsbD0iIzAwMDAwMCIgZm9udC1mYW1pbHk9InNhbnMtc2VyaWYiIGZvbnQtc2l6ZT0iMTEiIGxlbmd0aEFkanVzdD0ic3BhY2luZyIgdGV4dExlbmd0aD0iMTIwIiB4PSIyNDAiIHk9IjM2MC4wNzgxIj5wcm92aWRlZCBpbmZvcm1hdGlvbjwvdGV4dD48bGluZSBzdHlsZT0ic3Ryb2tlOiMxODE4MTg7c3Ryb2tlLXdpZHRoOjEuMDsiIHgxPSIyMzYiIHgyPSIyMzYiIHkxPSIxMzEuNjcxOSIgeTI9IjE3Ni42NTYzIi8+PHBvbHlnb24gZmlsbD0iIzE4MTgxOCIgcG9pbnRzPSIyMzIsMTY2LjY1NjMsMjM2LDE3Ni42NTYzLDI0MCwxNjYuNjU2MywyMzYsMTcwLjY1NjMiIHN0eWxlPSJzdHJva2U6IzE4MTgxODtzdHJva2Utd2lkdGg6MS4wOyIvPjxsaW5lIHN0eWxlPSJzdHJva2U6IzE4MTgxODtzdHJva2Utd2lkdGg6MS4wOyIgeDE9IjIzNiIgeDI9IjIzNiIgeTE9IjYxOC40Njg4IiB5Mj0iNjM4LjQ2ODgiLz48cG9seWdvbiBmaWxsPSIjMTgxODE4IiBwb2ludHM9IjIzMiw2MjguNDY4OCwyMzYsNjM4LjQ2ODgsMjQwLDYyOC40Njg4LDIzNiw2MzIuNDY4OCIgc3R5bGU9InN0cm9rZTojMTgxODE4O3N0cm9rZS13aWR0aDoxLjA7Ii8+PGxpbmUgc3R5bGU9InN0cm9rZTojMTgxODE4O3N0cm9rZS13aWR0aDoxLjA7IiB4MT0iMjM2IiB4Mj0iMjM2IiB5MT0iNjg0LjE1NjMiIHkyPSI3MDQuMTU2MyIvPjxwb2x5Z29uIGZpbGw9IiMxODE4MTgiIHBvaW50cz0iMjMyLDY5NC4xNTYzLDIzNiw3MDQuMTU2MywyNDAsNjk0LjE1NjMsMjM2LDY5OC4xNTYzIiBzdHlsZT0ic3Ryb2tlOiMxODE4MTg7c3Ryb2tlLXdpZHRoOjEuMDsiLz48bGluZSBzdHlsZT0ic3Ryb2tlOiMxODE4MTg7c3Ryb2tlLXdpZHRoOjEuMDsiIHgxPSIzMzgiIHgyPSIzMzgiIHkxPSI4NDIuOTkyMiIgeTI9Ijg2Mi45OTIyIi8+PHBvbHlnb24gZmlsbD0iIzE4MTgxOCIgcG9pbnRzPSIzMzQsODUyLjk5MjIsMzM4LDg2Mi45OTIyLDM0Miw4NTIuOTkyMiwzMzgsODU2Ljk5MjIiIHN0eWxlPSJzdHJva2U6IzE4MTgxODtzdHJva2Utd2lkdGg6MS4wOyIvPjxsaW5lIHN0eWxlPSJzdHJva2U6IzE4MTgxODtzdHJva2Utd2lkdGg6MS4wOyIgeDE9IjE3MCIgeDI9IjEzNCIgeTE9Ijc4OC4xNDg0IiB5Mj0iNzg4LjE0ODQiLz48bGluZSBzdHlsZT0ic3Ryb2tlOiMxODE4MTg7c3Ryb2tlLXdpZHRoOjEuMDsiIHgxPSIxMzQiIHgyPSIxMzQiIHkxPSI3ODguMTQ4NCIgeTI9IjgxMC4xNDg0Ii8+PHBvbHlnb24gZmlsbD0iIzE4MTgxOCIgcG9pbnRzPSIxMzAsODAwLjE0ODQsMTM0LDgxMC4xNDg0LDEzOCw4MDAuMTQ4NCwxMzQsODA0LjE0ODQiIHN0eWxlPSJzdHJva2U6IzE4MTgxODtzdHJva2Utd2lkdGg6MS4wOyIvPjxsaW5lIHN0eWxlPSJzdHJva2U6IzE4MTgxODtzdHJva2Utd2lkdGg6MS4wOyIgeDE9IjMwMiIgeDI9IjMzOCIgeTE9Ijc4OC4xNDg0IiB5Mj0iNzg4LjE0ODQiLz48bGluZSBzdHlsZT0ic3Ryb2tlOiMxODE4MTg7c3Ryb2tlLXdpZHRoOjEuMDsiIHgxPSIzMzgiIHgyPSIzMzgiIHkxPSI3ODguMTQ4NCIgeTI9IjgxMC4xNDg0Ii8+PHBvbHlnb24gZmlsbD0iIzE4MTgxOCIgcG9pbnRzPSIzMzQsODAwLjE0ODQsMzM4LDgxMC4xNDg0LDM0Miw4MDAuMTQ4NCwzMzgsODA0LjE0ODQiIHN0eWxlPSJzdHJva2U6IzE4MTgxODtzdHJva2Utd2lkdGg6MS4wOyIvPjxsaW5lIHN0eWxlPSJzdHJva2U6IzE4MTgxODtzdHJva2Utd2lkdGg6MS4wOyIgeDE9IjEzNCIgeDI9IjEzNCIgeTE9Ijg0Mi45OTIyIiB5Mj0iOTEzLjgzNTkiLz48bGluZSBzdHlsZT0ic3Ryb2tlOiMxODE4MTg7c3Ryb2tlLXdpZHRoOjEuMDsiIHgxPSIxMzQiIHgyPSIyMjQiIHkxPSI5MTMuODM1OSIgeTI9IjkxMy44MzU5Ii8+PHBvbHlnb24gZmlsbD0iIzE4MTgxOCIgcG9pbnRzPSIyMTQsOTA5LjgzNTksMjI0LDkxMy44MzU5LDIxNCw5MTcuODM1OSwyMTgsOTEzLjgzNTkiIHN0eWxlPSJzdHJva2U6IzE4MTgxODtzdHJva2Utd2lkdGg6MS4wOyIvPjxsaW5lIHN0eWxlPSJzdHJva2U6IzE4MTgxODtzdHJva2Utd2lkdGg6MS4wOyIgeDE9IjMzOCIgeDI9IjMzOCIgeTE9Ijg5NS44MzU5IiB5Mj0iOTEzLjgzNTkiLz48bGluZSBzdHlsZT0ic3Ryb2tlOiMxODE4MTg7c3Ryb2tlLXdpZHRoOjEuMDsiIHgxPSIzMzgiIHgyPSIyNDgiIHkxPSI5MTMuODM1OSIgeTI9IjkxMy44MzU5Ii8+PHBvbHlnb24gZmlsbD0iIzE4MTgxOCIgcG9pbnRzPSIyNTgsOTA5LjgzNTksMjQ4LDkxMy44MzU5LDI1OCw5MTcuODM1OSwyNTQsOTEzLjgzNTkiIHN0eWxlPSJzdHJva2U6IzE4MTgxODtzdHJva2Utd2lkdGg6MS4wOyIvPjxsaW5lIHN0eWxlPSJzdHJva2U6IzE4MTgxODtzdHJva2Utd2lkdGg6MS4wOyIgeDE9IjIzNiIgeDI9IjIzNiIgeTE9IjczNyIgeTI9Ijc3Ni4xNDg0Ii8+PHBvbHlnb24gZmlsbD0iIzE4MTgxOCIgcG9pbnRzPSIyMzIsNzY2LjE0ODQsMjM2LDc3Ni4xNDg0LDI0MCw3NjYuMTQ4NCwyMzYsNzcwLjE0ODQiIHN0eWxlPSJzdHJva2U6IzE4MTgxODtzdHJva2Utd2lkdGg6MS4wOyIvPjx0ZXh0IGZpbGw9IiMwMDAwMDAiIGZvbnQtZmFtaWx5PSJzYW5zLXNlcmlmIiBmb250LXNpemU9IjExIiBsZW5ndGhBZGp1c3Q9InNwYWNpbmciIHRleHRMZW5ndGg9IjE5MiIgeD0iMjQwIiB5PSI3NTcuMjczNCI+W1RydWVdIFN5c3RlbSBjaGVja3MgY3JlZGVudGlhbHM8L3RleHQ+PGxpbmUgc3R5bGU9InN0cm9rZTojMTgxODE4O3N0cm9rZS13aWR0aDoxLjA7IiB4MT0iMjM2IiB4Mj0iMjM2IiB5MT0iNTI4LjY0MDYiIHkyPSI1ODUuNjI1Ii8+PHBvbHlnb24gZmlsbD0iIzE4MTgxOCIgcG9pbnRzPSIyMzIsNTc1LjYyNSwyMzYsNTg1LjYyNSwyNDAsNTc1LjYyNSwyMzYsNTc5LjYyNSIgc3R5bGU9InN0cm9rZTojMTgxODE4O3N0cm9rZS13aWR0aDoxLjA7Ii8+PGxpbmUgc3R5bGU9InN0cm9rZTojMTgxODE4O3N0cm9rZS13aWR0aDoxLjA7IiB4MT0iMjM2IiB4Mj0iMjM2IiB5MT0iOTI1LjgzNTkiIHkyPSI5NTcuODM1OSIvPjxwb2x5Z29uIGZpbGw9IiMxODE4MTgiIHBvaW50cz0iMjMyLDk0Ny44MzU5LDIzNiw5NTcuODM1OSwyNDAsOTQ3LjgzNTksMjM2LDk1MS44MzU5IiBzdHlsZT0ic3Ryb2tlOiMxODE4MTg7c3Ryb2tlLXdpZHRoOjEuMDsiLz48bGluZSBzdHlsZT0ic3Ryb2tlOiMxODE4MTg7c3Ryb2tlLXdpZHRoOjEuMDsiIHgxPSIyMzYiIHgyPSIyMzYiIHkxPSI5OTAuNjc5NyIgeTI9IjEwMTAuNjc5NyIvPjxwb2x5Z29uIGZpbGw9IiMxODE4MTgiIHBvaW50cz0iMjMyLDEwMDAuNjc5NywyMzYsMTAxMC42Nzk3LDI0MCwxMDAwLjY3OTcsMjM2LDEwMDQuNjc5NyIgc3R5bGU9InN0cm9rZTojMTgxODE4O3N0cm9rZS13aWR0aDoxLjA7Ii8+PCEtLVNSQz1bYlBFekphQ24zOE50RjhOTGdQTkEycjA5MVlHYzlXZWlZMjRhbGdyNVZneGlmNU01VTdWb0txSEJBbjF0WjhfRklKeHhvWGs1S1JGc3U2RThQaXRIOG1wUTJJZ0xBM2M0SHE2NlVyb0g5RFE5T1cwVEJEcDU1R011VE42aGIySkRJUWRCZmpKNmUwWUFxWmNqQ0lHb2xNZEtBcm1lTFJBQVJKcXVpZG5OS0J4azhFWkc5ODU5TG8xRjVXVkxXUG1KWTNhMTduZUNhTnJKSk5ESDFVcm5OWTk1amY3ajdEMWhTaEQzNnljbGRhZjh4VWxkNXJWRjN2cG4xUFF4NGtmWGVuclBkU2ZCUWROYWsyNkI1WVpLYlhSUS1zWTB3TEZOcmVpaVNtQ21QN1N6V3FlMGZaa0tNUEVzLUJzek9RcGNhRlZHT1d2ZlNROEkzNVIwbjMzR0tJWU0wUzRxbjVEVklwOHdsSEQwdmlaV29ycVEtVE9MQjB0Z3V0MEFWT3ZkeVJWSTRWaW9Ka0gtdktndUxVZW9WODQtMXhZeXF6T3JBMmpyZGhEUGV0YXhld2pTUnh1RmVKNy1kVWNBVElZSFZHTl8xOE0xeTVaeVJ1dV9uQjJrVnFfVlQ0Ym5fMEcwXS0tPjwvZz48L3N2Zz4=;" vertex="1" parent="1">
            <mxGeometry x="460" y="-160" width="638" height="1363.59" as="geometry" />
          </mxCell>
        </UserObject>
        <UserObject label="" plantUmlData="{&quot;data&quot;:&quot;@startuml\nskinparam monochrome false\n\nclass User {\n    +String username\n    +String password\n    +String email\n}\n\nclass LoginController {\n    +login(username: String, password: String): User\n}\n\nclass RegistrationController {\n    +register(userDetails: User): User\n}\n\nclass UserService {\n    +findUser(username: String): User\n    +saveUser(user: User): void\n}\n\nUser \&quot;1\&quot; -- \&quot;1\&quot; LoginController : uses &gt;\nUser \&quot;1\&quot; -- \&quot;1\&quot; RegistrationController : uses &gt;\n\nLoginController \&quot;1\&quot; -- \&quot;1\&quot; UserService : uses &gt;\nRegistrationController \&quot;1\&quot; -- \&quot;1\&quot; UserService : uses &gt;\n\n@enduml\n&quot;,&quot;format&quot;:&quot;svg&quot;}" id="2xdIJRndykrlC1ebGBxE-4">
          <mxCell style="shape=image;noLabel=1;verticalAlign=top;aspect=fixed;imageAspect=0;image=data:image/svg+xml,PD94bWwgdmVyc2lvbj0iMS4wIiBlbmNvZGluZz0idXMtYXNjaWkiIHN0YW5kYWxvbmU9Im5vIj8+PHN2ZyB4bWxucz0iaHR0cDovL3d3dy53My5vcmcvMjAwMC9zdmciIHhtbG5zOnhsaW5rPSJodHRwOi8vd3d3LnczLm9yZy8xOTk5L3hsaW5rIiBjb250ZW50U3R5bGVUeXBlPSJ0ZXh0L2NzcyIgaGVpZ2h0PSIzOTdweCIgcHJlc2VydmVBc3BlY3RSYXRpbz0ibm9uZSIgc3R5bGU9IndpZHRoOjY2N3B4O2hlaWdodDozOTdweDtiYWNrZ3JvdW5kOiNGRkZGRkY7IiB2ZXJzaW9uPSIxLjEiIHZpZXdCb3g9IjAgMCA2NjcgMzk3IiB3aWR0aD0iNjY3cHgiIHpvb21BbmRQYW49Im1hZ25pZnkiPjxkZWZzLz48Zz48IS0tY2xhc3MgVXNlci0tPjxnIGlkPSJlbGVtX1VzZXIiPjxyZWN0IGNvZGVMaW5lPSIzIiBmaWxsPSIjRjFGMUYxIiBoZWlnaHQ9IjkyLjk1MzEiIGlkPSJVc2VyIiByeD0iMi41IiByeT0iMi41IiBzdHlsZT0ic3Ryb2tlOiMxODE4MTg7c3Ryb2tlLXdpZHRoOjAuNTsiIHdpZHRoPSIxMzIiIHg9IjI5MS41IiB5PSI3Ii8+PGVsbGlwc2UgY3g9IjMzOS4yNSIgY3k9IjIzIiBmaWxsPSIjQUREMUIyIiByeD0iMTEiIHJ5PSIxMSIgc3R5bGU9InN0cm9rZTojMTgxODE4O3N0cm9rZS13aWR0aDoxLjA7Ii8+PHBhdGggZD0iTTMzNi44NzUsMjcuMjUgTDMzNi44NzUsMjkgTDM0MS44MTI1LDI5IEwzNDEuODEyNSwyNy4yNSBMMzM2Ljg3NSwyNy4yNSBaIE0zMzcuNTYyNSwyNy45Mzc1IFEzMzcuNTYyNSwyNy45Mzc1IDMzNy41NjI1LDE4Ljc1IEwzMzUuODEyNSwxOC43NSBRMzM1LjgxMjUsMTguNzUgMzM1LjgxMjUsMjcuOTM3NSBMMzM3LjU2MjUsMjcuOTM3NSBaIE0zNDEuMTI1LDI3LjkzNzUgTDM0Mi44NzUsMjcuOTM3NSBRMzQyLjg3NSwyNy45Mzc1IDM0Mi44NzUsMjUuMTI1IEwzNDEuMTI1LDI1LjEyNSBRMzQxLjEyNSwyNS4xMjUgMzQxLjEyNSwyNy45Mzc1IFogTTM0MS4xMjUsMTguNzUgUTM0MS4xMjUsMTguNzUgMzQxLjEyNSwyMS41NjI1IEwzNDIuODc1LDIxLjU2MjUgUTM0Mi44NzUsMjEuNTYyNSAzNDIuODc1LDE4Ljc1IEwzNDEuMTI1LDE4Ljc1IFogTTMzNi44NzUsMTkuNDM3NSBMMzQxLjgxMjUsMTkuNDM3NSBMMzQxLjgxMjUsMTcuNjg3NSBMMzM2Ljg3NSwxNy42ODc1IEwzMzYuODc1LDE5LjQzNzUgWiAiIGZpbGw9IiMwMDAwMDAiLz48dGV4dCBmaWxsPSIjMDAwMDAwIiBmb250LWZhbWlseT0ic2Fucy1zZXJpZiIgZm9udC1zaXplPSIxNCIgbGVuZ3RoQWRqdXN0PSJzcGFjaW5nIiB0ZXh0TGVuZ3RoPSIyOCIgeD0iMzU5Ljc1IiB5PSIyOC43NDIyIj5Vc2VyPC90ZXh0PjxsaW5lIHN0eWxlPSJzdHJva2U6IzE4MTgxODtzdHJva2Utd2lkdGg6MC41OyIgeDE9IjI5Mi41IiB4Mj0iNDIyLjUiIHkxPSIzOSIgeTI9IjM5Ii8+PGVsbGlwc2UgY3g9IjMwMi41IiBjeT0iNTEuOTkyMiIgZmlsbD0ibm9uZSIgcng9IjMiIHJ5PSIzIiBzdHlsZT0ic3Ryb2tlOiMwMzgwNDg7c3Ryb2tlLXdpZHRoOjEuMDsiLz48dGV4dCBmaWxsPSIjMDAwMDAwIiBmb250LWZhbWlseT0ic2Fucy1zZXJpZiIgZm9udC1zaXplPSIxNCIgbGVuZ3RoQWRqdXN0PSJzcGFjaW5nIiB0ZXh0TGVuZ3RoPSIxMDYiIHg9IjMxMS41IiB5PSI1Ni4yMzQ0Ij5TdHJpbmcgdXNlcm5hbWU8L3RleHQ+PGVsbGlwc2UgY3g9IjMwMi41IiBjeT0iNjYuOTc2NiIgZmlsbD0ibm9uZSIgcng9IjMiIHJ5PSIzIiBzdHlsZT0ic3Ryb2tlOiMwMzgwNDg7c3Ryb2tlLXdpZHRoOjEuMDsiLz48dGV4dCBmaWxsPSIjMDAwMDAwIiBmb250LWZhbWlseT0ic2Fucy1zZXJpZiIgZm9udC1zaXplPSIxNCIgbGVuZ3RoQWRqdXN0PSJzcGFjaW5nIiB0ZXh0TGVuZ3RoPSIxMDYiIHg9IjMxMS41IiB5PSI3MS4yMTg4Ij5TdHJpbmcgcGFzc3dvcmQ8L3RleHQ+PGVsbGlwc2UgY3g9IjMwMi41IiBjeT0iODEuOTYwOSIgZmlsbD0ibm9uZSIgcng9IjMiIHJ5PSIzIiBzdHlsZT0ic3Ryb2tlOiMwMzgwNDg7c3Ryb2tlLXdpZHRoOjEuMDsiLz48dGV4dCBmaWxsPSIjMDAwMDAwIiBmb250LWZhbWlseT0ic2Fucy1zZXJpZiIgZm9udC1zaXplPSIxNCIgbGVuZ3RoQWRqdXN0PSJzcGFjaW5nIiB0ZXh0TGVuZ3RoPSI4NSIgeD0iMzExLjUiIHk9Ijg2LjIwMzEiPlN0cmluZyBlbWFpbDwvdGV4dD48bGluZSBzdHlsZT0ic3Ryb2tlOiMxODE4MTg7c3Ryb2tlLXdpZHRoOjAuNTsiIHgxPSIyOTIuNSIgeDI9IjQyMi41IiB5MT0iOTEuOTUzMSIgeTI9IjkxLjk1MzEiLz48L2c+PCEtLWNsYXNzIExvZ2luQ29udHJvbGxlci0tPjxnIGlkPSJlbGVtX0xvZ2luQ29udHJvbGxlciI+PHJlY3QgY29kZUxpbmU9IjkiIGZpbGw9IiNGMUYxRjEiIGhlaWdodD0iNjIuOTg0NCIgaWQ9IkxvZ2luQ29udHJvbGxlciIgcng9IjIuNSIgcnk9IjIuNSIgc3R5bGU9InN0cm9rZTojMTgxODE4O3N0cm9rZS13aWR0aDowLjU7IiB3aWR0aD0iMzU5IiB4PSI3IiB5PSIxNzUiLz48ZWxsaXBzZSBjeD0iMTI5Ljc1IiBjeT0iMTkxIiBmaWxsPSIjQUREMUIyIiByeD0iMTEiIHJ5PSIxMSIgc3R5bGU9InN0cm9rZTojMTgxODE4O3N0cm9rZS13aWR0aDoxLjA7Ii8+PHBhdGggZD0iTTEyNy4zNzUsMTk1LjI1IEwxMjcuMzc1LDE5NyBMMTMyLjMxMjUsMTk3IEwxMzIuMzEyNSwxOTUuMjUgTDEyNy4zNzUsMTk1LjI1IFogTTEyOC4wNjI1LDE5NS45Mzc1IFExMjguMDYyNSwxOTUuOTM3NSAxMjguMDYyNSwxODYuNzUgTDEyNi4zMTI1LDE4Ni43NSBRMTI2LjMxMjUsMTg2Ljc1IDEyNi4zMTI1LDE5NS45Mzc1IEwxMjguMDYyNSwxOTUuOTM3NSBaIE0xMzEuNjI1LDE5NS45Mzc1IEwxMzMuMzc1LDE5NS45Mzc1IFExMzMuMzc1LDE5NS45Mzc1IDEzMy4zNzUsMTkzLjEyNSBMMTMxLjYyNSwxOTMuMTI1IFExMzEuNjI1LDE5My4xMjUgMTMxLjYyNSwxOTUuOTM3NSBaIE0xMzEuNjI1LDE4Ni43NSBRMTMxLjYyNSwxODYuNzUgMTMxLjYyNSwxODkuNTYyNSBMMTMzLjM3NSwxODkuNTYyNSBRMTMzLjM3NSwxODkuNTYyNSAxMzMuMzc1LDE4Ni43NSBMMTMxLjYyNSwxODYuNzUgWiBNMTI3LjM3NSwxODcuNDM3NSBMMTMyLjMxMjUsMTg3LjQzNzUgTDEzMi4zMTI1LDE4NS42ODc1IEwxMjcuMzc1LDE4NS42ODc1IEwxMjcuMzc1LDE4Ny40Mzc1IFogIiBmaWxsPSIjMDAwMDAwIi8+PHRleHQgZmlsbD0iIzAwMDAwMCIgZm9udC1mYW1pbHk9InNhbnMtc2VyaWYiIGZvbnQtc2l6ZT0iMTQiIGxlbmd0aEFkanVzdD0ic3BhY2luZyIgdGV4dExlbmd0aD0iMTA1IiB4PSIxNTAuMjUiIHk9IjE5Ni43NDIyIj5Mb2dpbkNvbnRyb2xsZXI8L3RleHQ+PGxpbmUgc3R5bGU9InN0cm9rZTojMTgxODE4O3N0cm9rZS13aWR0aDowLjU7IiB4MT0iOCIgeDI9IjM2NSIgeTE9IjIwNyIgeTI9IjIwNyIvPjxsaW5lIHN0eWxlPSJzdHJva2U6IzE4MTgxODtzdHJva2Utd2lkdGg6MC41OyIgeDE9IjgiIHgyPSIzNjUiIHkxPSIyMTUiIHkyPSIyMTUiLz48ZWxsaXBzZSBjeD0iMTgiIGN5PSIyMjcuOTkyMiIgZmlsbD0iIzg0QkU4NCIgcng9IjMiIHJ5PSIzIiBzdHlsZT0ic3Ryb2tlOiMwMzgwNDg7c3Ryb2tlLXdpZHRoOjEuMDsiLz48dGV4dCBmaWxsPSIjMDAwMDAwIiBmb250LWZhbWlseT0ic2Fucy1zZXJpZiIgZm9udC1zaXplPSIxNCIgbGVuZ3RoQWRqdXN0PSJzcGFjaW5nIiB0ZXh0TGVuZ3RoPSIzMzMiIHg9IjI3IiB5PSIyMzIuMjM0NCI+bG9naW4odXNlcm5hbWU6IFN0cmluZywgcGFzc3dvcmQ6IFN0cmluZyk6IFVzZXI8L3RleHQ+PC9nPjwhLS1jbGFzcyBSZWdpc3RyYXRpb25Db250cm9sbGVyLS0+PGcgaWQ9ImVsZW1fUmVnaXN0cmF0aW9uQ29udHJvbGxlciI+PHJlY3QgY29kZUxpbmU9IjEzIiBmaWxsPSIjRjFGMUYxIiBoZWlnaHQ9IjYyLjk4NDQiIGlkPSJSZWdpc3RyYXRpb25Db250cm9sbGVyIiByeD0iMi41IiByeT0iMi41IiBzdHlsZT0ic3Ryb2tlOiMxODE4MTg7c3Ryb2tlLXdpZHRoOjAuNTsiIHdpZHRoPSIyNTkiIHg9IjQwMSIgeT0iMTc1Ii8+PGVsbGlwc2UgY3g9IjQ0OS4yNSIgY3k9IjE5MSIgZmlsbD0iI0FERDFCMiIgcng9IjExIiByeT0iMTEiIHN0eWxlPSJzdHJva2U6IzE4MTgxODtzdHJva2Utd2lkdGg6MS4wOyIvPjxwYXRoIGQ9Ik00NDYuODc1LDE5NS4yNSBMNDQ2Ljg3NSwxOTcgTDQ1MS44MTI1LDE5NyBMNDUxLjgxMjUsMTk1LjI1IEw0NDYuODc1LDE5NS4yNSBaIE00NDcuNTYyNSwxOTUuOTM3NSBRNDQ3LjU2MjUsMTk1LjkzNzUgNDQ3LjU2MjUsMTg2Ljc1IEw0NDUuODEyNSwxODYuNzUgUTQ0NS44MTI1LDE4Ni43NSA0NDUuODEyNSwxOTUuOTM3NSBMNDQ3LjU2MjUsMTk1LjkzNzUgWiBNNDUxLjEyNSwxOTUuOTM3NSBMNDUyLjg3NSwxOTUuOTM3NSBRNDUyLjg3NSwxOTUuOTM3NSA0NTIuODc1LDE5My4xMjUgTDQ1MS4xMjUsMTkzLjEyNSBRNDUxLjEyNSwxOTMuMTI1IDQ1MS4xMjUsMTk1LjkzNzUgWiBNNDUxLjEyNSwxODYuNzUgUTQ1MS4xMjUsMTg2Ljc1IDQ1MS4xMjUsMTg5LjU2MjUgTDQ1Mi44NzUsMTg5LjU2MjUgUTQ1Mi44NzUsMTg5LjU2MjUgNDUyLjg3NSwxODYuNzUgTDQ1MS4xMjUsMTg2Ljc1IFogTTQ0Ni44NzUsMTg3LjQzNzUgTDQ1MS44MTI1LDE4Ny40Mzc1IEw0NTEuODEyNSwxODUuNjg3NSBMNDQ2Ljg3NSwxODUuNjg3NSBMNDQ2Ljg3NSwxODcuNDM3NSBaICIgZmlsbD0iIzAwMDAwMCIvPjx0ZXh0IGZpbGw9IiMwMDAwMDAiIGZvbnQtZmFtaWx5PSJzYW5zLXNlcmlmIiBmb250LXNpemU9IjE0IiBsZW5ndGhBZGp1c3Q9InNwYWNpbmciIHRleHRMZW5ndGg9IjE1NCIgeD0iNDY5Ljc1IiB5PSIxOTYuNzQyMiI+UmVnaXN0cmF0aW9uQ29udHJvbGxlcjwvdGV4dD48bGluZSBzdHlsZT0ic3Ryb2tlOiMxODE4MTg7c3Ryb2tlLXdpZHRoOjAuNTsiIHgxPSI0MDIiIHgyPSI2NTkiIHkxPSIyMDciIHkyPSIyMDciLz48bGluZSBzdHlsZT0ic3Ryb2tlOiMxODE4MTg7c3Ryb2tlLXdpZHRoOjAuNTsiIHgxPSI0MDIiIHgyPSI2NTkiIHkxPSIyMTUiIHkyPSIyMTUiLz48ZWxsaXBzZSBjeD0iNDEyIiBjeT0iMjI3Ljk5MjIiIGZpbGw9IiM4NEJFODQiIHJ4PSIzIiByeT0iMyIgc3R5bGU9InN0cm9rZTojMDM4MDQ4O3N0cm9rZS13aWR0aDoxLjA7Ii8+PHRleHQgZmlsbD0iIzAwMDAwMCIgZm9udC1mYW1pbHk9InNhbnMtc2VyaWYiIGZvbnQtc2l6ZT0iMTQiIGxlbmd0aEFkanVzdD0ic3BhY2luZyIgdGV4dExlbmd0aD0iMjMzIiB4PSI0MjEiIHk9IjIzMi4yMzQ0Ij5yZWdpc3Rlcih1c2VyRGV0YWlsczogVXNlcik6IFVzZXI8L3RleHQ+PC9nPjwhLS1jbGFzcyBVc2VyU2VydmljZS0tPjxnIGlkPSJlbGVtX1VzZXJTZXJ2aWNlIj48cmVjdCBjb2RlTGluZT0iMTciIGZpbGw9IiNGMUYxRjEiIGhlaWdodD0iNzcuOTY4OCIgaWQ9IlVzZXJTZXJ2aWNlIiByeD0iMi41IiByeT0iMi41IiBzdHlsZT0ic3Ryb2tlOiMxODE4MTg7c3Ryb2tlLXdpZHRoOjAuNTsiIHdpZHRoPSIyNTMiIHg9IjIzMSIgeT0iMzEzIi8+PGVsbGlwc2UgY3g9IjMxNC43NSIgY3k9IjMyOSIgZmlsbD0iI0FERDFCMiIgcng9IjExIiByeT0iMTEiIHN0eWxlPSJzdHJva2U6IzE4MTgxODtzdHJva2Utd2lkdGg6MS4wOyIvPjxwYXRoIGQ9Ik0zMTIuMzc1LDMzMy4yNSBMMzEyLjM3NSwzMzUgTDMxNy4zMTI1LDMzNSBMMzE3LjMxMjUsMzMzLjI1IEwzMTIuMzc1LDMzMy4yNSBaIE0zMTMuMDYyNSwzMzMuOTM3NSBRMzEzLjA2MjUsMzMzLjkzNzUgMzEzLjA2MjUsMzI0Ljc1IEwzMTEuMzEyNSwzMjQuNzUgUTMxMS4zMTI1LDMyNC43NSAzMTEuMzEyNSwzMzMuOTM3NSBMMzEzLjA2MjUsMzMzLjkzNzUgWiBNMzE2LjYyNSwzMzMuOTM3NSBMMzE4LjM3NSwzMzMuOTM3NSBRMzE4LjM3NSwzMzMuOTM3NSAzMTguMzc1LDMzMS4xMjUgTDMxNi42MjUsMzMxLjEyNSBRMzE2LjYyNSwzMzEuMTI1IDMxNi42MjUsMzMzLjkzNzUgWiBNMzE2LjYyNSwzMjQuNzUgUTMxNi42MjUsMzI0Ljc1IDMxNi42MjUsMzI3LjU2MjUgTDMxOC4zNzUsMzI3LjU2MjUgUTMxOC4zNzUsMzI3LjU2MjUgMzE4LjM3NSwzMjQuNzUgTDMxNi42MjUsMzI0Ljc1IFogTTMxMi4zNzUsMzI1LjQzNzUgTDMxNy4zMTI1LDMyNS40Mzc1IEwzMTcuMzEyNSwzMjMuNjg3NSBMMzEyLjM3NSwzMjMuNjg3NSBMMzEyLjM3NSwzMjUuNDM3NSBaICIgZmlsbD0iIzAwMDAwMCIvPjx0ZXh0IGZpbGw9IiMwMDAwMDAiIGZvbnQtZmFtaWx5PSJzYW5zLXNlcmlmIiBmb250LXNpemU9IjE0IiBsZW5ndGhBZGp1c3Q9InNwYWNpbmciIHRleHRMZW5ndGg9Ijc3IiB4PSIzMzUuMjUiIHk9IjMzNC43NDIyIj5Vc2VyU2VydmljZTwvdGV4dD48bGluZSBzdHlsZT0ic3Ryb2tlOiMxODE4MTg7c3Ryb2tlLXdpZHRoOjAuNTsiIHgxPSIyMzIiIHgyPSI0ODMiIHkxPSIzNDUiIHkyPSIzNDUiLz48bGluZSBzdHlsZT0ic3Ryb2tlOiMxODE4MTg7c3Ryb2tlLXdpZHRoOjAuNTsiIHgxPSIyMzIiIHgyPSI0ODMiIHkxPSIzNTMiIHkyPSIzNTMiLz48ZWxsaXBzZSBjeD0iMjQyIiBjeT0iMzY1Ljk5MjIiIGZpbGw9IiM4NEJFODQiIHJ4PSIzIiByeT0iMyIgc3R5bGU9InN0cm9rZTojMDM4MDQ4O3N0cm9rZS13aWR0aDoxLjA7Ii8+PHRleHQgZmlsbD0iIzAwMDAwMCIgZm9udC1mYW1pbHk9InNhbnMtc2VyaWYiIGZvbnQtc2l6ZT0iMTQiIGxlbmd0aEFkanVzdD0ic3BhY2luZyIgdGV4dExlbmd0aD0iMjI3IiB4PSIyNTEiIHk9IjM3MC4yMzQ0Ij5maW5kVXNlcih1c2VybmFtZTogU3RyaW5nKTogVXNlcjwvdGV4dD48ZWxsaXBzZSBjeD0iMjQyIiBjeT0iMzgwLjk3NjYiIGZpbGw9IiM4NEJFODQiIHJ4PSIzIiByeT0iMyIgc3R5bGU9InN0cm9rZTojMDM4MDQ4O3N0cm9rZS13aWR0aDoxLjA7Ii8+PHRleHQgZmlsbD0iIzAwMDAwMCIgZm9udC1mYW1pbHk9InNhbnMtc2VyaWYiIGZvbnQtc2l6ZT0iMTQiIGxlbmd0aEFkanVzdD0ic3BhY2luZyIgdGV4dExlbmd0aD0iMTg0IiB4PSIyNTEiIHk9IjM4NS4yMTg4Ij5zYXZlVXNlcih1c2VyOiBVc2VyKTogdm9pZDwvdGV4dD48L2c+PCEtLWxpbmsgVXNlciB0byBMb2dpbkNvbnRyb2xsZXItLT48ZyBpZD0ibGlua19Vc2VyX0xvZ2luQ29udHJvbGxlciI+PHBhdGggY29kZUxpbmU9IjIyIiBkPSJNMzA1LjczLDEwMC4yMSBDMjc4LjMsMTI0LjQzIDI0NS4zNiwxNTMuNTIgMjIxLjA2LDE3NC45OCAiIGZpbGw9Im5vbmUiIGlkPSJVc2VyLUxvZ2luQ29udHJvbGxlciIgc3R5bGU9InN0cm9rZTojMTgxODE4O3N0cm9rZS13aWR0aDoxLjA7Ii8+PHBvbHlnb24gZmlsbD0iIzAwMDAwMCIgcG9pbnRzPSIyNzMuNzUyMiwxNDEuMjY2NywyODIuNDc3NCwxMzcuNDgyNCwyNzguNTg2NywxMzMuMDc2NiwyNzMuNzUyMiwxNDEuMjY2NyIgc3R5bGU9InN0cm9rZTojMDAwMDAwO3N0cm9rZS13aWR0aDoxLjA7Ii8+PHRleHQgZmlsbD0iIzAwMDAwMCIgZm9udC1mYW1pbHk9InNhbnMtc2VyaWYiIGZvbnQtc2l6ZT0iMTMiIGxlbmd0aEFkanVzdD0ic3BhY2luZyIgdGV4dExlbmd0aD0iMjgiIHg9IjI4Ni41IiB5PSIxNDMuMjg5MSI+dXNlczwvdGV4dD48dGV4dCBmaWxsPSIjMDAwMDAwIiBmb250LWZhbWlseT0ic2Fucy1zZXJpZiIgZm9udC1zaXplPSIxMyIgbGVuZ3RoQWRqdXN0PSJzcGFjaW5nIiB0ZXh0TGVuZ3RoPSI3IiB4PSIyOTAuNjEyMiIgeT0iMTIwLjM4NDkiPjE8L3RleHQ+PHRleHQgZmlsbD0iIzAwMDAwMCIgZm9udC1mYW1pbHk9InNhbnMtc2VyaWYiIGZvbnQtc2l6ZT0iMTMiIGxlbmd0aEFkanVzdD0ic3BhY2luZyIgdGV4dExlbmd0aD0iNyIgeD0iMjIxLjI0MjYiIHk9IjE2NS41ODQ0Ij4xPC90ZXh0PjwvZz48IS0tbGluayBVc2VyIHRvIFJlZ2lzdHJhdGlvbkNvbnRyb2xsZXItLT48ZyBpZD0ibGlua19Vc2VyX1JlZ2lzdHJhdGlvbkNvbnRyb2xsZXIiPjxwYXRoIGNvZGVMaW5lPSIyMyIgZD0iTTQwOS44OCwxMDAuMjEgQzQzNy42MiwxMjQuNDMgNDcwLjk1LDE1My41MiA0OTUuNTMsMTc0Ljk4ICIgZmlsbD0ibm9uZSIgaWQ9IlVzZXItUmVnaXN0cmF0aW9uQ29udHJvbGxlciIgc3R5bGU9InN0cm9rZTojMTgxODE4O3N0cm9rZS13aWR0aDoxLjA7Ii8+PHBvbHlnb24gZmlsbD0iIzAwMDAwMCIgcG9pbnRzPSI0NjcuMjY2NywxNDEuMjQ1Miw0NjIuMzg1NSwxMzMuMDgyOCw0NTguNTIsMTM3LjUxMDgsNDY3LjI2NjcsMTQxLjI0NTIiIHN0eWxlPSJzdHJva2U6IzAwMDAwMDtzdHJva2Utd2lkdGg6MS4wOyIvPjx0ZXh0IGZpbGw9IiMwMDAwMDAiIGZvbnQtZmFtaWx5PSJzYW5zLXNlcmlmIiBmb250LXNpemU9IjEzIiBsZW5ndGhBZGp1c3Q9InNwYWNpbmciIHRleHRMZW5ndGg9IjI4IiB4PSI0NzIuNSIgeT0iMTQzLjI4OTEiPnVzZXM8L3RleHQ+PHRleHQgZmlsbD0iIzAwMDAwMCIgZm9udC1mYW1pbHk9InNhbnMtc2VyaWYiIGZvbnQtc2l6ZT0iMTMiIGxlbmd0aEFkanVzdD0ic3BhY2luZyIgdGV4dExlbmd0aD0iNyIgeD0iNDEwLjA1OTMiIHk9IjEyMC4zODQ5Ij4xPC90ZXh0Pjx0ZXh0IGZpbGw9IiMwMDAwMDAiIGZvbnQtZmFtaWx5PSJzYW5zLXNlcmlmIiBmb250LXNpemU9IjEzIiBsZW5ndGhBZGp1c3Q9InNwYWNpbmciIHRleHRMZW5ndGg9IjciIHg9IjQ3OS42MzM4IiB5PSIxNjUuNTg0NCI+MTwvdGV4dD48L2c+PCEtLWxpbmsgTG9naW5Db250cm9sbGVyIHRvIFVzZXJTZXJ2aWNlLS0+PGcgaWQ9ImxpbmtfTG9naW5Db250cm9sbGVyX1VzZXJTZXJ2aWNlIj48cGF0aCBjb2RlTGluZT0iMjUiIGQ9Ik0yMjMuMTgsMjM4LjI4IEMyNDkuMTksMjYwLjExIDI4NC4yNiwyODkuNTQgMzEyLjA0LDMxMi44NSAiIGZpbGw9Im5vbmUiIGlkPSJMb2dpbkNvbnRyb2xsZXItVXNlclNlcnZpY2UiIHN0eWxlPSJzdHJva2U6IzE4MTgxODtzdHJva2Utd2lkdGg6MS4wOyIvPjxwb2x5Z29uIGZpbGw9IiMwMDAwMDAiIHBvaW50cz0iMjgxLjMzMDEsMjc5LjE3MTIsMjc2LjI5MDYsMjcxLjEwNTUsMjcyLjUxMjIsMjc1LjYwOCwyODEuMzMwMSwyNzkuMTcxMiIgc3R5bGU9InN0cm9rZTojMDAwMDAwO3N0cm9rZS13aWR0aDoxLjA7Ii8+PHRleHQgZmlsbD0iIzAwMDAwMCIgZm9udC1mYW1pbHk9InNhbnMtc2VyaWYiIGZvbnQtc2l6ZT0iMTMiIGxlbmd0aEFkanVzdD0ic3BhY2luZyIgdGV4dExlbmd0aD0iMjgiIHg9IjI4Ni41IiB5PSIyODEuMjg5MSI+dXNlczwvdGV4dD48dGV4dCBmaWxsPSIjMDAwMDAwIiBmb250LWZhbWlseT0ic2Fucy1zZXJpZiIgZm9udC1zaXplPSIxMyIgbGVuZ3RoQWRqdXN0PSJzcGFjaW5nIiB0ZXh0TGVuZ3RoPSI3IiB4PSIyMjIuNzEyMyIgeT0iMjU4LjE5NyI+MTwvdGV4dD48dGV4dCBmaWxsPSIjMDAwMDAwIiBmb250LWZhbWlseT0ic2Fucy1zZXJpZiIgZm9udC1zaXplPSIxMyIgbGVuZ3RoQWRqdXN0PSJzcGFjaW5nIiB0ZXh0TGVuZ3RoPSI3IiB4PSIyOTUuNDAxIiB5PSIzMDMuMjQ0OCI+MTwvdGV4dD48L2c+PCEtLWxpbmsgUmVnaXN0cmF0aW9uQ29udHJvbGxlciB0byBVc2VyU2VydmljZS0tPjxnIGlkPSJsaW5rX1JlZ2lzdHJhdGlvbkNvbnRyb2xsZXJfVXNlclNlcnZpY2UiPjxwYXRoIGNvZGVMaW5lPSIyNiIgZD0iTTQ5My4zOSwyMzguMjggQzQ2Ny4wOCwyNjAuMTEgNDMxLjYsMjg5LjU0IDQwMy40OSwzMTIuODUgIiBmaWxsPSJub25lIiBpZD0iUmVnaXN0cmF0aW9uQ29udHJvbGxlci1Vc2VyU2VydmljZSIgc3R5bGU9InN0cm9rZTojMTgxODE4O3N0cm9rZS13aWR0aDoxLjA7Ii8+PHBvbHlnb24gZmlsbD0iIzAwMDAwMCIgcG9pbnRzPSI0NTQuNjUxNiwyNzkuMTQ5Miw0NjMuNDg5NywyNzUuNjM2Niw0NTkuNzM3MSwyNzEuMTEyNSw0NTQuNjUxNiwyNzkuMTQ5MiIgc3R5bGU9InN0cm9rZTojMDAwMDAwO3N0cm9rZS13aWR0aDoxLjA7Ii8+PHRleHQgZmlsbD0iIzAwMDAwMCIgZm9udC1mYW1pbHk9InNhbnMtc2VyaWYiIGZvbnQtc2l6ZT0iMTMiIGxlbmd0aEFkanVzdD0ic3BhY2luZyIgdGV4dExlbmd0aD0iMjgiIHg9IjQ2Ny41IiB5PSIyODEuMjg5MSI+dXNlczwvdGV4dD48dGV4dCBmaWxsPSIjMDAwMDAwIiBmb250LWZhbWlseT0ic2Fucy1zZXJpZiIgZm9udC1zaXplPSIxMyIgbGVuZ3RoQWRqdXN0PSJzcGFjaW5nIiB0ZXh0TGVuZ3RoPSI3IiB4PSI0NzguMzk0OSIgeT0iMjU4LjE5NyI+MTwvdGV4dD48dGV4dCBmaWxsPSIjMDAwMDAwIiBmb250LWZhbWlseT0ic2Fucy1zZXJpZiIgZm9udC1zaXplPSIxMyIgbGVuZ3RoQWRqdXN0PSJzcGFjaW5nIiB0ZXh0TGVuZ3RoPSI3IiB4PSI0MDQuODU1MiIgeT0iMzAzLjI0NDgiPjE8L3RleHQ+PC9nPjwhLS1TUkM9W1hQMnpSVzhuNDhIeEZ5TUEyWEdlUUEtV0lTZktlM28wVFJUU0xqWFVqRWpTWWVYdHZzbmF5dEVXa0I0eWRsYXFrdGdXU0JIWUZOV0V0N3VCVXVJelRPaDZqQ3dnbWZVWW05LTF5UnBqZWIzZXVNVUtXbEx1OW52N3lvekJUb1VZai1KQ2dSMC1rUVZtcFk0QUV0VjVrWUpGMnhNMUl0WFBhS0xQREJkRGJSVjVkWklBWlNIRmk5OV9LSkJ2MC1ET0hJLTQySVl6VFlXM2pMWklVbWZUYVlVeklaWXhyMHZPTkhLLUM3SzlkZFN0TXl6V2pTaE51X25ETWdOMlBjOXlDTFpyY3FWSUpWUHNiWGZ1MFZtZFRXTzBdLS0+PC9nPjwvc3ZnPg==;" vertex="1" parent="1">
            <mxGeometry x="-263" y="120" width="667" height="397" as="geometry" />
          </mxCell>
        </UserObject>
        <UserObject label="" plantUmlData="{&#xa;  &quot;data&quot;: &quot;@startuml\nskinparam monochrome false\n\nactor User\nparticipant \&quot;RegistrationController\&quot; as RC\nparticipant \&quot;UserService\&quot; as US\nparticipant \&quot;LoginController\&quot; as LC\n\n== Registration Process ==\nUser -&gt; RC : register(userDetails)\nactivate RC\nRC -&gt; US : saveUser(userDetails)\nactivate US\nUS -&gt; US : validateDetails()\nUS --&gt; RC : userCreated\ndeactivate US\nRC --&gt; User : confirmation\ndeactivate RC\n\n== Login Process ==\nUser -&gt; LC : login(username, password)\nactivate LC\nLC -&gt; US : findUser(username)\nactivate US\nUS --&gt; LC : user\ndeactivate US\nLC -&gt; LC : checkCredentials(password)\nLC --&gt; User : accessGranted / accessDenied\ndeactivate LC\n\n@enduml\n&quot;,&#xa;  &quot;format&quot;: &quot;svg&quot;&#xa;}" id="2xdIJRndykrlC1ebGBxE-5">
          <mxCell style="shape=image;noLabel=1;verticalAlign=top;aspect=fixed;imageAspect=0;image=data:image/svg+xml,PD94bWwgdmVyc2lvbj0iMS4wIiBlbmNvZGluZz0idXMtYXNjaWkiIHN0YW5kYWxvbmU9Im5vIj8+PHN2ZyB4bWxucz0iaHR0cDovL3d3dy53My5vcmcvMjAwMC9zdmciIHhtbG5zOnhsaW5rPSJodHRwOi8vd3d3LnczLm9yZy8xOTk5L3hsaW5rIiBjb250ZW50U3R5bGVUeXBlPSJ0ZXh0L2NzcyIgaGVpZ2h0PSI1NjhweCIgcHJlc2VydmVBc3BlY3RSYXRpbz0ibm9uZSIgc3R5bGU9IndpZHRoOjcxNHB4O2hlaWdodDo1NjhweDtiYWNrZ3JvdW5kOiNGRkZGRkY7IiB2ZXJzaW9uPSIxLjEiIHZpZXdCb3g9IjAgMCA3MTQgNTY4IiB3aWR0aD0iNzE0cHgiIHpvb21BbmRQYW49Im1hZ25pZnkiPjxkZWZzLz48Zz48cmVjdCBmaWxsPSIjRkZGRkZGIiBoZWlnaHQ9IjEyNC42NTYzIiBzdHlsZT0ic3Ryb2tlOiMxODE4MTg7c3Ryb2tlLXdpZHRoOjEuMDsiIHdpZHRoPSIxMCIgeD0iMTgxIiB5PSIxNTEuODEyNSIvPjxyZWN0IGZpbGw9IiNGRkZGRkYiIGhlaWdodD0iNjguODI4MSIgc3R5bGU9InN0cm9rZTojMTgxODE4O3N0cm9rZS13aWR0aDoxLjA7IiB3aWR0aD0iMTAiIHg9IjM1MiIgeT0iMTc5LjcyNjYiLz48cmVjdCBmaWxsPSIjRkZGRkZGIiBoZWlnaHQ9IjI3LjkxNDEiIHN0eWxlPSJzdHJva2U6IzE4MTgxODtzdHJva2Utd2lkdGg6MS4wOyIgd2lkdGg9IjEwIiB4PSIzNTIiIHk9IjM3NC4yMTA5Ii8+PHJlY3QgZmlsbD0iI0ZGRkZGRiIgaGVpZ2h0PSIxMjQuNjU2MyIgc3R5bGU9InN0cm9rZTojMTgxODE4O3N0cm9rZS13aWR0aDoxLjA7IiB3aWR0aD0iMTAiIHg9IjUwMiIgeT0iMzQ2LjI5NjkiLz48bGluZSBzdHlsZT0ic3Ryb2tlOiMxODE4MTg7c3Ryb2tlLXdpZHRoOjAuNTtzdHJva2UtZGFzaGFycmF5OjUuMCw1LjA7IiB4MT0iMjIiIHgyPSIyMiIgeTE9Ijc5Ljk4NDQiIHkyPSI0ODguOTUzMSIvPjxsaW5lIHN0eWxlPSJzdHJva2U6IzE4MTgxODtzdHJva2Utd2lkdGg6MC41O3N0cm9rZS1kYXNoYXJyYXk6NS4wLDUuMDsiIHgxPSIxODYiIHgyPSIxODYiIHkxPSI3OS45ODQ0IiB5Mj0iNDg4Ljk1MzEiLz48bGluZSBzdHlsZT0ic3Ryb2tlOiMxODE4MTg7c3Ryb2tlLXdpZHRoOjAuNTtzdHJva2UtZGFzaGFycmF5OjUuMCw1LjA7IiB4MT0iMzU2LjUiIHgyPSIzNTYuNSIgeTE9Ijc5Ljk4NDQiIHkyPSI0ODguOTUzMSIvPjxsaW5lIHN0eWxlPSJzdHJva2U6IzE4MTgxODtzdHJva2Utd2lkdGg6MC41O3N0cm9rZS1kYXNoYXJyYXk6NS4wLDUuMDsiIHgxPSI1MDYuNSIgeDI9IjUwNi41IiB5MT0iNzkuOTg0NCIgeTI9IjQ4OC45NTMxIi8+PHRleHQgZmlsbD0iIzAwMDAwMCIgZm9udC1mYW1pbHk9InNhbnMtc2VyaWYiIGZvbnQtc2l6ZT0iMTQiIGxlbmd0aEFkanVzdD0ic3BhY2luZyIgdGV4dExlbmd0aD0iMjgiIHg9IjUiIHk9Ijc4LjIzNDQiPlVzZXI8L3RleHQ+PGVsbGlwc2UgY3g9IjIyIiBjeT0iMTMuNSIgZmlsbD0iI0UyRTJGMCIgcng9IjgiIHJ5PSI4IiBzdHlsZT0ic3Ryb2tlOiMxODE4MTg7c3Ryb2tlLXdpZHRoOjAuNTsiLz48cGF0aCBkPSJNMjIsMjEuNSBMMjIsNDguNSBNOSwyOS41IEwzNSwyOS41IE0yMiw0OC41IEw5LDYzLjUgTTIyLDQ4LjUgTDM1LDYzLjUgIiBmaWxsPSJub25lIiBzdHlsZT0ic3Ryb2tlOiMxODE4MTg7c3Ryb2tlLXdpZHRoOjAuNTsiLz48dGV4dCBmaWxsPSIjMDAwMDAwIiBmb250LWZhbWlseT0ic2Fucy1zZXJpZiIgZm9udC1zaXplPSIxNCIgbGVuZ3RoQWRqdXN0PSJzcGFjaW5nIiB0ZXh0TGVuZ3RoPSIyOCIgeD0iNSIgeT0iNTAxLjE4NzUiPlVzZXI8L3RleHQ+PGVsbGlwc2UgY3g9IjIyIiBjeT0iNTExLjQzNzUiIGZpbGw9IiNFMkUyRjAiIHJ4PSI4IiByeT0iOCIgc3R5bGU9InN0cm9rZTojMTgxODE4O3N0cm9rZS13aWR0aDowLjU7Ii8+PHBhdGggZD0iTTIyLDUxOS40Mzc1IEwyMiw1NDYuNDM3NSBNOSw1MjcuNDM3NSBMMzUsNTI3LjQzNzUgTTIyLDU0Ni40Mzc1IEw5LDU2MS40Mzc1IE0yMiw1NDYuNDM3NSBMMzUsNTYxLjQzNzUgIiBmaWxsPSJub25lIiBzdHlsZT0ic3Ryb2tlOiMxODE4MTg7c3Ryb2tlLXdpZHRoOjAuNTsiLz48cmVjdCBmaWxsPSIjRTJFMkYwIiBoZWlnaHQ9IjI4Ljk4NDQiIHJ4PSIyLjUiIHJ5PSIyLjUiIHN0eWxlPSJzdHJva2U6IzE4MTgxODtzdHJva2Utd2lkdGg6MC41OyIgd2lkdGg9IjE2OCIgeD0iMTAyIiB5PSI1MCIvPjx0ZXh0IGZpbGw9IiMwMDAwMDAiIGZvbnQtZmFtaWx5PSJzYW5zLXNlcmlmIiBmb250LXNpemU9IjE0IiBsZW5ndGhBZGp1c3Q9InNwYWNpbmciIHRleHRMZW5ndGg9IjE1NCIgeD0iMTA5IiB5PSI3MC4yMzQ0Ij5SZWdpc3RyYXRpb25Db250cm9sbGVyPC90ZXh0PjxyZWN0IGZpbGw9IiNFMkUyRjAiIGhlaWdodD0iMjguOTg0NCIgcng9IjIuNSIgcnk9IjIuNSIgc3R5bGU9InN0cm9rZTojMTgxODE4O3N0cm9rZS13aWR0aDowLjU7IiB3aWR0aD0iMTY4IiB4PSIxMDIiIHk9IjQ4Ny45NTMxIi8+PHRleHQgZmlsbD0iIzAwMDAwMCIgZm9udC1mYW1pbHk9InNhbnMtc2VyaWYiIGZvbnQtc2l6ZT0iMTQiIGxlbmd0aEFkanVzdD0ic3BhY2luZyIgdGV4dExlbmd0aD0iMTU0IiB4PSIxMDkiIHk9IjUwOC4xODc1Ij5SZWdpc3RyYXRpb25Db250cm9sbGVyPC90ZXh0PjxyZWN0IGZpbGw9IiNFMkUyRjAiIGhlaWdodD0iMjguOTg0NCIgcng9IjIuNSIgcnk9IjIuNSIgc3R5bGU9InN0cm9rZTojMTgxODE4O3N0cm9rZS13aWR0aDowLjU7IiB3aWR0aD0iOTEiIHg9IjMxMS41IiB5PSI1MCIvPjx0ZXh0IGZpbGw9IiMwMDAwMDAiIGZvbnQtZmFtaWx5PSJzYW5zLXNlcmlmIiBmb250LXNpemU9IjE0IiBsZW5ndGhBZGp1c3Q9InNwYWNpbmciIHRleHRMZW5ndGg9Ijc3IiB4PSIzMTguNSIgeT0iNzAuMjM0NCI+VXNlclNlcnZpY2U8L3RleHQ+PHJlY3QgZmlsbD0iI0UyRTJGMCIgaGVpZ2h0PSIyOC45ODQ0IiByeD0iMi41IiByeT0iMi41IiBzdHlsZT0ic3Ryb2tlOiMxODE4MTg7c3Ryb2tlLXdpZHRoOjAuNTsiIHdpZHRoPSI5MSIgeD0iMzExLjUiIHk9IjQ4Ny45NTMxIi8+PHRleHQgZmlsbD0iIzAwMDAwMCIgZm9udC1mYW1pbHk9InNhbnMtc2VyaWYiIGZvbnQtc2l6ZT0iMTQiIGxlbmd0aEFkanVzdD0ic3BhY2luZyIgdGV4dExlbmd0aD0iNzciIHg9IjMxOC41IiB5PSI1MDguMTg3NSI+VXNlclNlcnZpY2U8L3RleHQ+PHJlY3QgZmlsbD0iI0UyRTJGMCIgaGVpZ2h0PSIyOC45ODQ0IiByeD0iMi41IiByeT0iMi41IiBzdHlsZT0ic3Ryb2tlOiMxODE4MTg7c3Ryb2tlLXdpZHRoOjAuNTsiIHdpZHRoPSIxMTkiIHg9IjQ0Ny41IiB5PSI1MCIvPjx0ZXh0IGZpbGw9IiMwMDAwMDAiIGZvbnQtZmFtaWx5PSJzYW5zLXNlcmlmIiBmb250LXNpemU9IjE0IiBsZW5ndGhBZGp1c3Q9InNwYWNpbmciIHRleHRMZW5ndGg9IjEwNSIgeD0iNDU0LjUiIHk9IjcwLjIzNDQiPkxvZ2luQ29udHJvbGxlcjwvdGV4dD48cmVjdCBmaWxsPSIjRTJFMkYwIiBoZWlnaHQ9IjI4Ljk4NDQiIHJ4PSIyLjUiIHJ5PSIyLjUiIHN0eWxlPSJzdHJva2U6IzE4MTgxODtzdHJva2Utd2lkdGg6MC41OyIgd2lkdGg9IjExOSIgeD0iNDQ3LjUiIHk9IjQ4Ny45NTMxIi8+PHRleHQgZmlsbD0iIzAwMDAwMCIgZm9udC1mYW1pbHk9InNhbnMtc2VyaWYiIGZvbnQtc2l6ZT0iMTQiIGxlbmd0aEFkanVzdD0ic3BhY2luZyIgdGV4dExlbmd0aD0iMTA1IiB4PSI0NTQuNSIgeT0iNTA4LjE4NzUiPkxvZ2luQ29udHJvbGxlcjwvdGV4dD48cmVjdCBmaWxsPSIjRkZGRkZGIiBoZWlnaHQ9IjEyNC42NTYzIiBzdHlsZT0ic3Ryb2tlOiMxODE4MTg7c3Ryb2tlLXdpZHRoOjEuMDsiIHdpZHRoPSIxMCIgeD0iMTgxIiB5PSIxNTEuODEyNSIvPjxyZWN0IGZpbGw9IiNGRkZGRkYiIGhlaWdodD0iNjguODI4MSIgc3R5bGU9InN0cm9rZTojMTgxODE4O3N0cm9rZS13aWR0aDoxLjA7IiB3aWR0aD0iMTAiIHg9IjM1MiIgeT0iMTc5LjcyNjYiLz48cmVjdCBmaWxsPSIjRkZGRkZGIiBoZWlnaHQ9IjI3LjkxNDEiIHN0eWxlPSJzdHJva2U6IzE4MTgxODtzdHJva2Utd2lkdGg6MS4wOyIgd2lkdGg9IjEwIiB4PSIzNTIiIHk9IjM3NC4yMTA5Ii8+PHJlY3QgZmlsbD0iI0ZGRkZGRiIgaGVpZ2h0PSIxMjQuNjU2MyIgc3R5bGU9InN0cm9rZTojMTgxODE4O3N0cm9rZS13aWR0aDoxLjA7IiB3aWR0aD0iMTAiIHg9IjUwMiIgeT0iMzQ2LjI5NjkiLz48cmVjdCBmaWxsPSIjRUVFRUVFIiBoZWlnaHQ9IjMiIHN0eWxlPSJzdHJva2U6I0VFRUVFRTtzdHJva2Utd2lkdGg6MS4wOyIgd2lkdGg9IjcwNyIgeD0iMCIgeT0iMTA5Ljk0MTQiLz48bGluZSBzdHlsZT0ic3Ryb2tlOiMwMDAwMDA7c3Ryb2tlLXdpZHRoOjEuMDsiIHgxPSIwIiB4Mj0iNzA3IiB5MT0iMTA5Ljk0MTQiIHkyPSIxMDkuOTQxNCIvPjxsaW5lIHN0eWxlPSJzdHJva2U6IzAwMDAwMDtzdHJva2Utd2lkdGg6MS4wOyIgeDE9IjAiIHgyPSI3MDciIHkxPSIxMTIuOTQxNCIgeTI9IjExMi45NDE0Ii8+PHJlY3QgZmlsbD0iI0VFRUVFRSIgaGVpZ2h0PSIyMS45MTQxIiBzdHlsZT0ic3Ryb2tlOiMwMDAwMDA7c3Ryb2tlLXdpZHRoOjIuMDsiIHdpZHRoPSIxNTciIHg9IjI3NSIgeT0iOTkuOTg0NCIvPjx0ZXh0IGZpbGw9IiMwMDAwMDAiIGZvbnQtZmFtaWx5PSJzYW5zLXNlcmlmIiBmb250LXNpemU9IjEzIiBmb250LXdlaWdodD0iYm9sZCIgbGVuZ3RoQWRqdXN0PSJzcGFjaW5nIiB0ZXh0TGVuZ3RoPSIxMzYiIHg9IjI4MSIgeT0iMTE2LjI3MzQiPlJlZ2lzdHJhdGlvbiBQcm9jZXNzPC90ZXh0Pjxwb2x5Z29uIGZpbGw9IiMxODE4MTgiIHBvaW50cz0iMTY5LDE0Ny44MTI1LDE3OSwxNTEuODEyNSwxNjksMTU1LjgxMjUsMTczLDE1MS44MTI1IiBzdHlsZT0ic3Ryb2tlOiMxODE4MTg7c3Ryb2tlLXdpZHRoOjEuMDsiLz48bGluZSBzdHlsZT0ic3Ryb2tlOiMxODE4MTg7c3Ryb2tlLXdpZHRoOjEuMDsiIHgxPSIyMiIgeDI9IjE3NSIgeTE9IjE1MS44MTI1IiB5Mj0iMTUxLjgxMjUiLz48dGV4dCBmaWxsPSIjMDAwMDAwIiBmb250LWZhbWlseT0ic2Fucy1zZXJpZiIgZm9udC1zaXplPSIxMyIgbGVuZ3RoQWRqdXN0PSJzcGFjaW5nIiB0ZXh0TGVuZ3RoPSIxNDAiIHg9IjI5IiB5PSIxNDguMTg3NSI+cmVnaXN0ZXIodXNlckRldGFpbHMpPC90ZXh0Pjxwb2x5Z29uIGZpbGw9IiMxODE4MTgiIHBvaW50cz0iMzQwLDE3NS43MjY2LDM1MCwxNzkuNzI2NiwzNDAsMTgzLjcyNjYsMzQ0LDE3OS43MjY2IiBzdHlsZT0ic3Ryb2tlOiMxODE4MTg7c3Ryb2tlLXdpZHRoOjEuMDsiLz48bGluZSBzdHlsZT0ic3Ryb2tlOiMxODE4MTg7c3Ryb2tlLXdpZHRoOjEuMDsiIHgxPSIxOTEiIHgyPSIzNDYiIHkxPSIxNzkuNzI2NiIgeTI9IjE3OS43MjY2Ii8+PHRleHQgZmlsbD0iIzAwMDAwMCIgZm9udC1mYW1pbHk9InNhbnMtc2VyaWYiIGZvbnQtc2l6ZT0iMTMiIGxlbmd0aEFkanVzdD0ic3BhY2luZyIgdGV4dExlbmd0aD0iMTQyIiB4PSIxOTgiIHk9IjE3Ni4xMDE2Ij5zYXZlVXNlcih1c2VyRGV0YWlscyk8L3RleHQ+PGxpbmUgc3R5bGU9InN0cm9rZTojMTgxODE4O3N0cm9rZS13aWR0aDoxLjA7IiB4MT0iMzYyIiB4Mj0iNDA0IiB5MT0iMjA3LjY0MDYiIHkyPSIyMDcuNjQwNiIvPjxsaW5lIHN0eWxlPSJzdHJva2U6IzE4MTgxODtzdHJva2Utd2lkdGg6MS4wOyIgeDE9IjQwNCIgeDI9IjQwNCIgeTE9IjIwNy42NDA2IiB5Mj0iMjIwLjY0MDYiLz48bGluZSBzdHlsZT0ic3Ryb2tlOiMxODE4MTg7c3Ryb2tlLXdpZHRoOjEuMDsiIHgxPSIzNjMiIHgyPSI0MDQiIHkxPSIyMjAuNjQwNiIgeTI9IjIyMC42NDA2Ii8+PHBvbHlnb24gZmlsbD0iIzE4MTgxOCIgcG9pbnRzPSIzNzMsMjE2LjY0MDYsMzYzLDIyMC42NDA2LDM3MywyMjQuNjQwNiwzNjksMjIwLjY0MDYiIHN0eWxlPSJzdHJva2U6IzE4MTgxODtzdHJva2Utd2lkdGg6MS4wOyIvPjx0ZXh0IGZpbGw9IiMwMDAwMDAiIGZvbnQtZmFtaWx5PSJzYW5zLXNlcmlmIiBmb250LXNpemU9IjEzIiBsZW5ndGhBZGp1c3Q9InNwYWNpbmciIHRleHRMZW5ndGg9IjExMSIgeD0iMzY5IiB5PSIyMDQuMDE1NiI+dmFsaWRhdGVEZXRhaWxzKCk8L3RleHQ+PHBvbHlnb24gZmlsbD0iIzE4MTgxOCIgcG9pbnRzPSIyMDIsMjQ0LjU1NDcsMTkyLDI0OC41NTQ3LDIwMiwyNTIuNTU0NywxOTgsMjQ4LjU1NDciIHN0eWxlPSJzdHJva2U6IzE4MTgxODtzdHJva2Utd2lkdGg6MS4wOyIvPjxsaW5lIHN0eWxlPSJzdHJva2U6IzE4MTgxODtzdHJva2Utd2lkdGg6MS4wO3N0cm9rZS1kYXNoYXJyYXk6Mi4wLDIuMDsiIHgxPSIxOTYiIHgyPSIzNTYiIHkxPSIyNDguNTU0NyIgeTI9IjI0OC41NTQ3Ii8+PHRleHQgZmlsbD0iIzAwMDAwMCIgZm9udC1mYW1pbHk9InNhbnMtc2VyaWYiIGZvbnQtc2l6ZT0iMTMiIGxlbmd0aEFkanVzdD0ic3BhY2luZyIgdGV4dExlbmd0aD0iNzYiIHg9IjIwOCIgeT0iMjQ0LjkyOTciPnVzZXJDcmVhdGVkPC90ZXh0Pjxwb2x5Z29uIGZpbGw9IiMxODE4MTgiIHBvaW50cz0iMzMsMjcyLjQ2ODgsMjMsMjc2LjQ2ODgsMzMsMjgwLjQ2ODgsMjksMjc2LjQ2ODgiIHN0eWxlPSJzdHJva2U6IzE4MTgxODtzdHJva2Utd2lkdGg6MS4wOyIvPjxsaW5lIHN0eWxlPSJzdHJva2U6IzE4MTgxODtzdHJva2Utd2lkdGg6MS4wO3N0cm9rZS1kYXNoYXJyYXk6Mi4wLDIuMDsiIHgxPSIyNyIgeDI9IjE4NSIgeTE9IjI3Ni40Njg4IiB5Mj0iMjc2LjQ2ODgiLz48dGV4dCBmaWxsPSIjMDAwMDAwIiBmb250LWZhbWlseT0ic2Fucy1zZXJpZiIgZm9udC1zaXplPSIxMyIgbGVuZ3RoQWRqdXN0PSJzcGFjaW5nIiB0ZXh0TGVuZ3RoPSI3OSIgeD0iMzkiIHk9IjI3Mi44NDM4Ij5jb25maXJtYXRpb248L3RleHQ+PHJlY3QgZmlsbD0iI0VFRUVFRSIgaGVpZ2h0PSIzIiBzdHlsZT0ic3Ryb2tlOiNFRUVFRUU7c3Ryb2tlLXdpZHRoOjEuMDsiIHdpZHRoPSI3MDciIHg9IjAiIHk9IjMwNC40MjU4Ii8+PGxpbmUgc3R5bGU9InN0cm9rZTojMDAwMDAwO3N0cm9rZS13aWR0aDoxLjA7IiB4MT0iMCIgeDI9IjcwNyIgeTE9IjMwNC40MjU4IiB5Mj0iMzA0LjQyNTgiLz48bGluZSBzdHlsZT0ic3Ryb2tlOiMwMDAwMDA7c3Ryb2tlLXdpZHRoOjEuMDsiIHgxPSIwIiB4Mj0iNzA3IiB5MT0iMzA3LjQyNTgiIHkyPSIzMDcuNDI1OCIvPjxyZWN0IGZpbGw9IiNFRUVFRUUiIGhlaWdodD0iMjEuOTE0MSIgc3R5bGU9InN0cm9rZTojMDAwMDAwO3N0cm9rZS13aWR0aDoyLjA7IiB3aWR0aD0iMTExIiB4PSIyOTgiIHk9IjI5NC40Njg4Ii8+PHRleHQgZmlsbD0iIzAwMDAwMCIgZm9udC1mYW1pbHk9InNhbnMtc2VyaWYiIGZvbnQtc2l6ZT0iMTMiIGZvbnQtd2VpZ2h0PSJib2xkIiBsZW5ndGhBZGp1c3Q9InNwYWNpbmciIHRleHRMZW5ndGg9IjkwIiB4PSIzMDQiIHk9IjMxMC43NTc4Ij5Mb2dpbiBQcm9jZXNzPC90ZXh0Pjxwb2x5Z29uIGZpbGw9IiMxODE4MTgiIHBvaW50cz0iNDkwLDM0Mi4yOTY5LDUwMCwzNDYuMjk2OSw0OTAsMzUwLjI5NjksNDk0LDM0Ni4yOTY5IiBzdHlsZT0ic3Ryb2tlOiMxODE4MTg7c3Ryb2tlLXdpZHRoOjEuMDsiLz48bGluZSBzdHlsZT0ic3Ryb2tlOiMxODE4MTg7c3Ryb2tlLXdpZHRoOjEuMDsiIHgxPSIyMiIgeDI9IjQ5NiIgeTE9IjM0Ni4yOTY5IiB5Mj0iMzQ2LjI5NjkiLz48dGV4dCBmaWxsPSIjMDAwMDAwIiBmb250LWZhbWlseT0ic2Fucy1zZXJpZiIgZm9udC1zaXplPSIxMyIgbGVuZ3RoQWRqdXN0PSJzcGFjaW5nIiB0ZXh0TGVuZ3RoPSIxNjgiIHg9IjI5IiB5PSIzNDIuNjcxOSI+bG9naW4odXNlcm5hbWUsIHBhc3N3b3JkKTwvdGV4dD48cG9seWdvbiBmaWxsPSIjMTgxODE4IiBwb2ludHM9IjM3MywzNzAuMjEwOSwzNjMsMzc0LjIxMDksMzczLDM3OC4yMTA5LDM2OSwzNzQuMjEwOSIgc3R5bGU9InN0cm9rZTojMTgxODE4O3N0cm9rZS13aWR0aDoxLjA7Ii8+PGxpbmUgc3R5bGU9InN0cm9rZTojMTgxODE4O3N0cm9rZS13aWR0aDoxLjA7IiB4MT0iMzY3IiB4Mj0iNTAxIiB5MT0iMzc0LjIxMDkiIHkyPSIzNzQuMjEwOSIvPjx0ZXh0IGZpbGw9IiMwMDAwMDAiIGZvbnQtZmFtaWx5PSJzYW5zLXNlcmlmIiBmb250LXNpemU9IjEzIiBsZW5ndGhBZGp1c3Q9InNwYWNpbmciIHRleHRMZW5ndGg9IjEyMSIgeD0iMzc5IiB5PSIzNzAuNTg1OSI+ZmluZFVzZXIodXNlcm5hbWUpPC90ZXh0Pjxwb2x5Z29uIGZpbGw9IiMxODE4MTgiIHBvaW50cz0iNDkwLDM5OC4xMjUsNTAwLDQwMi4xMjUsNDkwLDQwNi4xMjUsNDk0LDQwMi4xMjUiIHN0eWxlPSJzdHJva2U6IzE4MTgxODtzdHJva2Utd2lkdGg6MS4wOyIvPjxsaW5lIHN0eWxlPSJzdHJva2U6IzE4MTgxODtzdHJva2Utd2lkdGg6MS4wO3N0cm9rZS1kYXNoYXJyYXk6Mi4wLDIuMDsiIHgxPSIzNTciIHgyPSI0OTYiIHkxPSI0MDIuMTI1IiB5Mj0iNDAyLjEyNSIvPjx0ZXh0IGZpbGw9IiMwMDAwMDAiIGZvbnQtZmFtaWx5PSJzYW5zLXNlcmlmIiBmb250LXNpemU9IjEzIiBsZW5ndGhBZGp1c3Q9InNwYWNpbmciIHRleHRMZW5ndGg9IjI4IiB4PSIzNjQiIHk9IjM5OC41Ij51c2VyPC90ZXh0PjxsaW5lIHN0eWxlPSJzdHJva2U6IzE4MTgxODtzdHJva2Utd2lkdGg6MS4wOyIgeDE9IjUxMiIgeDI9IjU1NCIgeTE9IjQzMC4wMzkxIiB5Mj0iNDMwLjAzOTEiLz48bGluZSBzdHlsZT0ic3Ryb2tlOiMxODE4MTg7c3Ryb2tlLXdpZHRoOjEuMDsiIHgxPSI1NTQiIHgyPSI1NTQiIHkxPSI0MzAuMDM5MSIgeTI9IjQ0My4wMzkxIi8+PGxpbmUgc3R5bGU9InN0cm9rZTojMTgxODE4O3N0cm9rZS13aWR0aDoxLjA7IiB4MT0iNTEzIiB4Mj0iNTU0IiB5MT0iNDQzLjAzOTEiIHkyPSI0NDMuMDM5MSIvPjxwb2x5Z29uIGZpbGw9IiMxODE4MTgiIHBvaW50cz0iNTIzLDQzOS4wMzkxLDUxMyw0NDMuMDM5MSw1MjMsNDQ3LjAzOTEsNTE5LDQ0My4wMzkxIiBzdHlsZT0ic3Ryb2tlOiMxODE4MTg7c3Ryb2tlLXdpZHRoOjEuMDsiLz48dGV4dCBmaWxsPSIjMDAwMDAwIiBmb250LWZhbWlseT0ic2Fucy1zZXJpZiIgZm9udC1zaXplPSIxMyIgbGVuZ3RoQWRqdXN0PSJzcGFjaW5nIiB0ZXh0TGVuZ3RoPSIxNzYiIHg9IjUxOSIgeT0iNDI2LjQxNDEiPmNoZWNrQ3JlZGVudGlhbHMocGFzc3dvcmQpPC90ZXh0Pjxwb2x5Z29uIGZpbGw9IiMxODE4MTgiIHBvaW50cz0iMzMsNDY2Ljk1MzEsMjMsNDcwLjk1MzEsMzMsNDc0Ljk1MzEsMjksNDcwLjk1MzEiIHN0eWxlPSJzdHJva2U6IzE4MTgxODtzdHJva2Utd2lkdGg6MS4wOyIvPjxsaW5lIHN0eWxlPSJzdHJva2U6IzE4MTgxODtzdHJva2Utd2lkdGg6MS4wO3N0cm9rZS1kYXNoYXJyYXk6Mi4wLDIuMDsiIHgxPSIyNyIgeDI9IjUwNiIgeTE9IjQ3MC45NTMxIiB5Mj0iNDcwLjk1MzEiLz48dGV4dCBmaWxsPSIjMDAwMDAwIiBmb250LWZhbWlseT0ic2Fucy1zZXJpZiIgZm9udC1zaXplPSIxMyIgbGVuZ3RoQWRqdXN0PSJzcGFjaW5nIiB0ZXh0TGVuZ3RoPSIxOTQiIHg9IjM5IiB5PSI0NjcuMzI4MSI+YWNjZXNzR3JhbnRlZCAvIGFjY2Vzc0RlbmllZDwvdGV4dD48IS0tU1JDPVtUUDkxUnk4bTM4TmwtSE5NSlkxanNYc2ZrbkhmYm51YzQzXzBJV25PajBib2lreGxwbXVtTWhPVGNfVnYtUnNhLVNKblo4ODMzMmFjVnZHcTRFb25wLUdTLWY4NFRmZDRBTEJPeW5iWldRU0Q3SldObVM4ZmpZYU1JTnJGeVdJT09URkVLSGxVYWVwaWdVZ3h4THBscWU0VkZSaE1rUVExd0hSdWFFR2ZQc1dRUHZSbXlnUWhPMExJOFBCNWZ2d2tnSTN0VU1kMVVTSDI1YVNuWE5UUlhKRUVQREZfbTlmRGlIaXlPaXoxWndfU09iZDVzcnZwUThMSzNveEdyQ0JzY09VYk44NUZTU3lvcjE5SlM3RmZNRWxfTFF3cDlSc2ZETXA0V1B4WFozYl85R2NKcDdmTnRSdFdkY0Z1QU1XcGx6bFRsOHJ1STd1bmdnZV9hWnpmbHEybmlGdUNZX2xnUmpPRmxJTF81dHJDMmwxd19Mdkp2RmQ1VEVxdF0tLT48L2c+PC9zdmc+;" vertex="1" parent="1">
            <mxGeometry x="-310" y="630" width="714" height="568" as="geometry" />
          </mxCell>
        </UserObject>
      </root>
    </mxGraphModel>
  </diagram>
</mxfile>
